<?xml version="1.0" encoding="UTF-8"?>
<svg id="Layer_2" data-name="Layer 2" xmlns="http://www.w3.org/2000/svg" viewBox="0 0 627.5 627.5">
  <defs>
    <style>
      .cls-1 {
        fill: #fff;
      }

      .cls-2 {
        stroke-linecap: round;
      }

      .cls-2, .cls-3, .cls-4 {
        fill: none;
      }

      .cls-2, .cls-4 {
        stroke: #140000;
        stroke-miterlimit: 10;
        stroke-width: 12px;
      }

      .cls-5 {
        fill: #fdd042;
      }

      .cls-6 {
        fill: #fff2b8;
      }

      .cls-7 {
        fill: #6fc8fe;
      }

      .cls-8 {
        fill: #468eba;
      }

      .cls-9 {
        fill: #e87c1c;
      }
    </style>
  </defs>
  <g id="Layer_1-2" data-name="Layer 1">
    <g>
      <g>
        <g>
          <path class="cls-5" d="M437.68,536.89c-10.86-19.79-40.39-15.3-40.39-15.3,0,0,3.91-35.99-15.64-42.74-13.1-4.52-43.73-4.8-62.53-4.49-18.82-.31-49.48-.03-62.59,4.49-19.57,6.75-15.65,42.74-15.65,42.74,0,0-29.57-4.5-40.43,15.3-10.87,19.79-3.91,40.49,15.65,40.49h205.95c19.55,0,26.5-20.69,15.64-40.49Z"/>
          <path class="cls-7" d="M288.41,474.11l63.49-.71,89.16-209.72s-.71-13.55-34.95-17.83l54.21-179.04s.71-21.4-26.39-14.27l-260.36,121.98s-12.13,9.99-1.43,34.24c10.7,24.25,116.27,265.35,116.27,265.35Z"/>
          <path class="cls-9" d="M389.87,499.14c-23.89,3.64-46.73,7.91-71.07,7.72-11.49-.09-22.95-.99-34.35-2.39-11.9-1.46-23.5-4.71-35.42-5.87-5.38-.53-7.15,5.08-5.3,9.02-1.64,3.2-.46,8.22,3.63,9.62,11.27,3.86,23.81,4.7,35.6,5.94,12.39,1.3,24.87,1.83,37.33,1.89,23.91.12,49.87-.72,73.09-6.85,4.86-1.28,5.67-5.72,3.93-9.04,2.56-4.18-1.1-11.01-7.46-10.04Z"/>
          <g>
            <path class="cls-6" d="M255.4,492.96c9.86,2.44,21.16.73,31.11-.64,11.43-1.57,23.04-1.71,34.57-1.37,21.49.64,44.44,2.5,65.63-1.73,4.09-.82,3.79-6.98,0-7.99-21.38-5.64-45.38-3.79-67.21-2.03-11.54.93-23.04,1.4-34.6,1.25-10.09-.13-21.24,0-30.62,3.97-3.79,1.61-2.5,7.64,1.12,8.53Z"/>
            <path class="cls-6" d="M437.23,557.44c.73-5.93-1.57-12.91-4.23-17.87,1.06-2.78.44-6.1-2.81-7.87-8.93-4.86-21.36-6.17-31.44-6.61-11.41-.49-23.06-.02-34.47.31-23.65.68-47.34-.04-71.01.6-11.59.31-23.16.38-34.75.49-11.31.11-23.05-.64-34.26,1.08-19.74,3.03-24.56,20.41-22.88,37.98.51,5.28,6.16,8.33,10.34,6.98,4.03,5.42,12.09,1.64,10.9-5.02-3.38-19,28.12-19.69,40.27-20.93,19.95-2.03,40.09-2.41,60.13-2.52,19.55-.1,39.09-.03,58.64.4,12.32.27,40.94,2.56,34.88,22.19-2.46,7.97,8.25,11.47,12.51,5.72,1.38.19,2.95-.04,4.7-.84,2.36-1.08,3.39-3.84,3.57-6.22.2-2.65.14-5.27-.08-7.86Z"/>
          </g>
          <path class="cls-1" d="M458.82,68.89c-1.73-4.27-3.7-8.42-5.66-12.59-1.16-2.46-5.12-4.18-7.71-3.14-38.83,15.58-77.65,31.35-115.72,48.72-18.8,8.58-36.17,19.68-54.99,28.21-9.76,4.42-20.03,7.31-29.82,11.76-10.05,4.57-20.19,9.39-29.65,15.09-2.19,1.32-3.02,3.28-2.92,5.19-3.3,1.49-6.59,3-9.86,4.57-10.65,5.11-21.22,10.57-31.48,16.4-3.76,2.14-4.34,6.58-2.68,10.22,13.07,28.67,25.84,57.52,39.29,86.01,3.65,7.74,7.21,15.51,10.73,23.31-.36,1.71.17,3.47,2.01,4.52,1.94,4.35,3.9,8.69,5.8,13.05,5.94,13.64,9.79,29.85,18.47,42,1.04,1.45,2.79,1.83,4.15,1.3,1.73,5.85,3.46,11.7,5.2,17.54,6.36,21.29,12.58,43.02,22.86,62.81,1.86,3.58,8.46,2.11,7.95-2.15-3.99-33.28-16.13-65.67-25.55-97.71-.02-.08-.04-.15-.07-.23-2.48-8.43,6.37-15.72,14.18-11.69,7.66,3.95,15.79,8.05,21.21,10.53,7.06,3.24,14.28,6.4,21.61,9.37,27.73,11.25,43.51,40.85,36.79,70.01-1.78,7.72-3.43,15.47-4.9,23.26-1.04,5.51,6.23,7.37,8.29,2.28,3.84-9.54,7.4-19.18,10.77-28.9,2.07.88,4.78.43,6.54-1.87,8.24-10.75,13.3-24.58,18.86-36.86,5.71-12.62,11.26-25.31,16.76-38.02,5.34-12.34,10.4-24.8,15.46-37.25,2.51-6.18,5.01-12.36,7.53-18.54,2.33-5.72,5.74-11.82,6.43-18.01,1.11-9.88-5.91-15.54-14.55-18.35-12.77-4.17-26.17-6.85-39.13-10.4-26.7-7.32-53.18-15.4-79.51-23.98-24.26-7.9-48.33-16.38-72.23-25.34,2.37-2.58,4.51-5.63,6.94-7.76,6.37-5.6,13.61-9.66,21.07-13.59,1.81-.95,2.35-2.55,2.09-4.07,18.73-5.32,36.99-13.75,55.02-20.82,9.46-3.71,18.84-7.72,28.4-11.15,8.44-3.03,21.06-7.42,29.88-3.34,8.75,4.05,2.23,21.08-.26,27.75-2.82,7.55-8.02,15.4-4.81,23.7,3.05,7.86,11.9,10.37,14.26,18.92,2.81,10.2-1.65,20.72-5.28,30.11-2.52,6.54,6.64,10.13,10.75,5.8,3.13,2.75,8.31,2.97,11.11-1.64,8.01-13.2,12.19-30.14,17.35-44.66,5.47-15.4,11.18-30.72,16.73-46.1,5.55-15.37,11.06-30.8,15.69-46.48,1.94-6.58,4.16-13.8,4.28-20.69,2.23-1.56,3.57-4.15,2.36-7.13ZM241.9,251.58c7.5-.18,16.33,3.29,23.65,4.88,8.44,1.83,16.87,3.67,25.31,5.5,14.89,3.24,29.86,6.31,44.63,10.06,15.21,3.86,30.38,8.59,44.23,16.09,3.42,1.85,7.02,3.48,8.08,7.43,1.02,3.82-1.32,8.79-2.43,12.45-2.57,8.48-5.15,16.96-7.72,25.44l-.05.16c-2.57,8.46-12.24,12.39-20.01,8.18-1.29-.7-2.57-1.4-3.85-2.11-14.13-7.85-28.15-15.89-42.23-23.84-13.62-7.68-27.34-15.24-40.67-23.42-7.43-4.55-15.12-9.76-23.12-14.14-6.45-3.53-11.05-9.87-12-17.16-.65-4.97.27-9.39,6.18-9.53Z"/>
          <g>
            <path class="cls-8" d="M324.19,217.95c.66.03,1.26-.1,1.81-.33,3.72,3.34,8.01,5.95,12.97,7,3.56.75,7.8-3.28,5.24-6.81-6.88-9.49-16.11-16.46-21.47-27.19-5.04-10.1-6.14-23.38-15.46-30.77-10.44-8.29-22.52-2.81-33.28,1.79-13.15,5.62-27.5,11.22-38.62,20.38-4.29,3.53.33,10.6,5.3,9.11.31-.09.62-.21.93-.31-.09,2.79,1.38,5.45,4.97,6.14,13.47,2.59,26.78,5.81,39.9,9.82,12.16,3.71,24.94,10.54,37.7,11.19Z"/>
            <path class="cls-8" d="M348.82,459.16c-10.37-5.41-16.83-18.82-29.96-18.29-5.12.21-9.35,3.05-13.19,6.17-5.98,4.87-11.15,8.01-18.36,10.65-4.23,1.55-5.07,6.89-1.23,9.45,5.07,3.38,9.25,2.74,12.93.39.69,2.69,2.8,4.96,5.95,4.58,6.08-.73,12.14-1.35,18.26-1.5,5.71-.15,11.39.25,16.99-1.06.23-.05.44-.12.64-.2,1.03.42,2.1.77,3.26.97,6.35,1.1,11.28-7.72,4.7-11.15Z"/>
          </g>
        </g>
        <path class="cls-2" d="M404.15,245.94l56.03-174.09c4.42-13.73-9.58-26.18-22.7-20.17l-256.69,117.44c-12.23,5.59-17.66,19.99-12.19,32.27l120.73,270.76h62.59l86.43-199.99c3.26-7.53-.79-16.22-8.66-18.57l-187.21-55.98c-9.05-2.71-10.19-15.06-1.78-19.38l31.62-16.23"/>
        <path class="cls-4" d="M272.94,472.15h91.55c18.12,0,32.83,14.71,32.83,32.83v16.06h-157.21v-16.06c0-18.12,14.71-32.83,32.83-32.83Z"/>
        <path class="cls-4" d="M223.46,521.03h190.52c16.65,0,30.16,13.51,30.16,30.16v9.18c0,9.38-7.62,17-17,17h-216.84c-9.38,0-17-7.62-17-17v-9.18c0-16.65,13.51-30.16,30.16-30.16Z"/>
      </g>
      <rect class="cls-3" width="627.5" height="627.5"/>
    </g>
  </g>
</svg>