<?xml version="1.0" encoding="UTF-8"?>
<svg id="Layer_2" data-name="Layer 2" xmlns="http://www.w3.org/2000/svg" viewBox="0 0 627.5 627.5">
  <defs>
    <style>
      .cls-1 {
        stroke: #140000;
        stroke-linecap: round;
        stroke-linejoin: round;
        stroke-width: 12px;
      }

      .cls-1, .cls-2 {
        fill: none;
      }

      .cls-3 {
        fill: #7d3d13;
      }

      .cls-4 {
        fill: #451807;
      }

      .cls-5 {
        fill: #fdd042;
      }

      .cls-6 {
        fill: #fff2b8;
      }

      .cls-7 {
        fill: #140000;
      }

      .cls-8 {
        fill: #ab6535;
      }

      .cls-9 {
        fill: #e87c1c;
      }
    </style>
  </defs>
  <g id="Layer_1-2" data-name="Layer 1">
    <g>
      <g>
        <g>
          <path class="cls-3" d="M394.47,424.46c-12.98-12.01-35.08-5.77-35.08-5.77,2.4,21.15-26.43,37-60.55,33.16-33.16-5.29-37-35.56-37-35.56,0,0-14.9,0-27.39,4.32-1.35.47-3.05,1.57-4.99,3.15-3.21,5.61-7.33,10.74-11.12,15.95-4.45,6.13-8.99,12.17-13.65,18.13-5,6.4-9.94,12.82-14.47,19.56-2.88,4.29-5.84,8.5-9.24,12.34,1.25,23.28,5.99,96.2,16.46,106.28,12.49,12.01,209.53,10.57,224.43-1.44,14.9-12.01,18.26-110.05,18.26-110.05,0,0-32.68-48.06-45.65-60.07Z"/>
          <g>
            <path class="cls-5" d="M412.98,24.58c-18.02-.58-77.4.16-104.3.54-25.69-.38-82.42-1.12-99.63-.54-43.59,1.47-61.16,164.85,37.96,189.87,0,0-.7,18.4,12.65,33.12,0,0-23.86,12.53-29.53,23.55-.75,1.45-1.22,3.04-1.47,4.76,2.91,11.91,8.55,22.99,11.31,34.99.25,1.11.5,2.22.73,3.33.16.36.3.74.36,1.21,1.25,8.91,6.44,16.56,7.27,25.6.07.72-.02,1.34-.22,1.87.55,2.34,1.04,4.69,1.47,7.07,5.5,19.86,10.39,43.83,12.19,72.78,0,0-.08.6-.1,1.62.6,2.12,1.34,4.38,2.22,6.63,1.95,3.18,4.73,6.25,7.05,8.52,3.87,3.79,7.51,6.83,12.35,9.3.81.41,1.37.95,1.72,1.56,6.15,1.48,13.89,2.14,23.67,1.51,53.94,3.34,49.1-29.13,49.1-29.13,5.89-90.52,43.42-132.47,33.12-151.6-5.93-11.02-30.91-23.55-30.91-23.55,13.98-14.72,13.25-33.12,13.25-33.12,103.77-25.02,85.37-188.4,39.74-189.87Z"/>
            <path class="cls-5" d="M398.54,523.44c-2.98-.15-5.95-.42-8.9-.75-10.28,1.3-21.01-.2-31.26-.2h-112.65c-2.03.31-4.07.61-6.11.86-5.83.71-11.67,1.1-17.54,1.27-5.94,10.25-1.73,30.51-1.73,30.51,0,0,.65,11.59,10.64,14.55,8.02,2.37,49.92,3.28,77.7,2.84,29.08.44,72.94-.46,81.34-2.84,10.45-2.95,11.14-14.55,11.14-14.55,0,0,4.76-21.91-2.62-31.68Z"/>
          </g>
          <g>
            <path class="cls-9" d="M255.11,236.01c7.15,5.12,16.86,5.88,25.37,7.03,9.32,1.26,18.68,1.89,28.09,1.98,9.04.08,18.09-.32,27.09-1.23,9.4-.94,19.89-1.6,28.75-4.94,7.27-2.73,6.94-14.93-1.96-14.49-8.96.44-17.85,2.83-26.79,3.75-9,.92-18.05,1.35-27.09,1.3-8.54-.06-17.07-.59-25.57-1.39-8.77-.82-17.93-3.26-26.65-1.45-4.75.99-4.55,7.08-1.23,9.45Z"/>
            <path class="cls-9" d="M366.71,247.51c-8.81,2.76-16.61,8.08-25.58,10.79-9.53,2.88-19.34,4.43-29.3,4.64-9.54.21-18.97-.8-28.25-3.05-8.73-2.12-17.84-7.73-26.79-7.81-3.81-.03-7.15,4.74-4.68,8.15,5.74,7.92,17.23,11.08,26.33,13.52,10.79,2.89,22.22,4.19,33.38,3.99,10.78-.19,21.66-1.8,32.02-4.8,9.82-2.85,22.05-6.77,29.49-14.04,4.78-4.67-.08-13.45-6.63-11.4Z"/>
            <path class="cls-9" d="M352.21,413.8c-7.72-2.23-15.5,4.25-21.82-3.35-5.25-6.32-3.31-14.12-4.57-21.41,1.74-8.6,2.95-17.74,1.82-26.33,1.46-4.53,3.15-9.05,4.24-13.65,6.4-5.16,6.14-20.1,4.6-27.45-2.02-9.64-11.37-8.93-19.28-9.11-8.55-.19-21.15-2.97-28.48,2.76-5.6,4.38-6.28,13.24-2.99,19.16.17.31.39.56.62.78-.84,9.76,2.83,20.59,4.51,29.91,1.89,10.5,3.82,20.98,5.81,31.46-1.22,5.25-3.1,10.22-8.92,11.82-7.33,2.02-14.36-2.75-21.49-.73-3.47.98-4.38,5.19-2.05,7.75,1.14,1.25,2.54,2.27,4.08,3.11-5.37,18.28,18.82,28.11,33,29.73,8.87,1.01,17.65-.14,25.76-3.09.52.19,1.07.31,1.66.32,11.3.2,23.33-9.41,24.87-20.73.22-1.61-.17-3.24-.94-4.66.49-.59.95-1.24,1.34-1.95.93-1.68.1-3.81-1.77-4.34Z"/>
          </g>
          <g>
            <path class="cls-6" d="M364.33,521.38c-15.01.05-30.03.3-45.04.39-30.95.2-61.91.71-92.86.49,0,0-.02,0-.03,0-5.13,3.56-5.72,10.31-6.65,16.48-.25,1.64-.04,3.08.47,4.31-1.14,4.22-.26,11.83,2.11,16.83,3.82,8.07,9.41,12.34,24.14,9.84,2.68.98,5.64,1.35,8.86.84,2.08,1.3,4.73,1.31,6.76-1.24,14.17-17.74,39.73-22.85,60.67-28.19,11.43-2.92,22.97-5.13,34.52-7.49,10.93-2.24,25.29-2.1,34.89-8,1.52-.93,1.74-2.61,1.05-3.9-9.63,0-19.27-.38-28.89-.34ZM286.93,539.52c-10.7,4.15-21.51,9.3-27.65,14.86-6.03,5.46-15.86,2.8-17.58-5.15-1.33-6.16.99-13.06,8.3-15.47,9.8-3.24,22.7-1.87,32.93-2.39.68-.03,1.43-.07,2.22-.11,4.86-.25,6.32,6.5,1.78,8.26Z"/>
            <path class="cls-6" d="M347,380.85c-.55,7.2-1.76,16.52,2.52,22.76,1.39,2.02,4.23,2.14,5.59,0,3.09-4.86,2.85-11.1,3.21-16.73.39-6.03.73-12.05,1.5-18.05.51-3.99,1.14-7.96,1.8-11.92,1.22.26,2.56-.16,3.37-1.54,5.3-8.98,7.65-20.4,11.28-30.18,4.12-11.11,8.77-22.05,13.9-32.73,2.24-4.67-1.55-11.67-7.38-9.6-10.46,3.71-20.81,7.66-31.21,11.5-4.65,1.72-5.44,6.45-3.6,9.63-1.01,1.09-1.7,2.55-1.87,4.42-.13,1.46,1.43,2.24,2.64,2.01,20.03-3.71,2.91,38.82,1.14,47.93-1.44,7.41-2.32,14.97-2.9,22.49Z"/>
            <path class="cls-6" d="M233.01,289.81c4.11,10.87,7.5,22.01,11.78,32.81,1.15,2.9,3.77,3.88,6.03,3.41.14.82.3,1.64.48,2.45,2.42,10.93,6.14,21.45,8,32.53,1.73,10.26,1.61,22.04,5.79,31.64.8,1.84,3.9,1.74,4.73,0,5.93-12.41,2.45-29.1-.63-41.89-2.03-8.39-20.21-46.35,1.38-42.12,5.35,1.05,9.06-6.22,3.86-9.16-1.19-.67-2.4-1.15-3.63-1.46,0-2.18-1.36-4.57-3.44-5.39-8.81-3.43-17.94-4.42-26.57-8.81-3.73-1.9-9.54,1.33-7.79,5.99Z"/>
            <path class="cls-6" d="M283.97,309.5c4.31-.73,8.66-1.99,12.91-3.04,3.25-.8,7.13-1.35,9.11-4.21.49-.7.29-1.84-.31-2.41-2.83-2.69-7.64-1.93-11.23-1.4-2.78.41-5.58,1.04-8.31,1.89-.45-.39-1.02-.64-1.64-.68-1.44-.09-3.05.5-4.45.81-1.3.28-2.06,1.8-1.72,3.03.13.46.38.8.68,1.08-.58,2.45,1.96,5.44,4.95,4.94Z"/>
            <path class="cls-6" d="M343.99,298.05c-2.53-.52-5.19-.32-7.67.33-.76.2-1.4.69-1.84,1.33-.75-.16-1.5-.3-2.21-.42-2.9-.51-5.83-.94-8.06,1.39-.73.76-1.1,1.9-.78,2.94.95,3.03,3.44,4.08,6.29,4.9,2.74.8,6.18,1.79,9.03,1.44,2.37-.29,3.95-2.06,4.15-3.98,0,0,.01,0,.02,0,2.02-.19,3.68-1.39,3.96-3.5.25-1.87-.92-4.02-2.89-4.42Z"/>
            <path class="cls-6" d="M381.88,263.25c-5.62,1.68-10.62,5.09-15.96,7.52-5.23,2.37-10.64,4.35-16.08,6.2-11.55,3.93-23.32,6.22-35.54,6.52-11.9.29-24.45-.42-36.03-3.25-5.16-1.26-10.39-2.71-15.37-4.59-6.27-2.36-11.25-6.51-17.11-9.54-4.03-2.09-9.74,2.42-6.73,6.73,7.15,10.25,22.32,14.02,33.92,16.49,12.8,2.72,25.51,4.44,38.63,4.08,12.89-.35,26.04-2.06,38.63-4.85,12.1-2.67,27.92-7.12,37.3-15.57,4.35-3.92-.22-11.36-5.66-9.73Z"/>
            <path class="cls-6" d="M437.92,46.91c-5.42-14.15-16.25-20.7-31.26-20.47-18.35.28-36.81,1.44-55.14,2.45-8.52.47-17.03,1.04-25.53,1.71.13-2.15-.94-4.21-3.65-4.68-14.26-2.42-30.14-.27-44.61-.36-14.45-.09-28.85-.67-43.26-1.8-10.49-.82-21.57-1.58-31.37,3.01-8.66,4.06-13.94,11.56-17.18,20.12-1.44-1.4-3.67-1.66-5.41-.05-4.96,4.61-5.4,11.73-6.28,18.15-1.02,7.42-1.59,14.9-1.46,22.39.2,11.13.44,27.34,6.74,37.89.24,3.03.56,6.05,1.03,9.07,1.91,12.39,6.62,23.94,13.27,34.53,6.3,10.02,14.55,22.99,25.29,28.53,1.12.58,2.38.71,3.58.5,6.03,5.71,13.34,9.14,22.16,8.6,3.73-.23,4.93-4.77,1.86-6.85-1.65-1.12-3.28-2.25-4.86-3.39-11.04-8-11.7-24.28-1.45-33.26,5.45-4.77,10.76-9.65,16.08-14.04,14.68-12.12,29.59-23.93,44.6-35.63,15-11.7,30.22-23.13,45.62-34.3,5.57-4.04,16.89-12.05,22.27-15.82,1.93-1.35,4.25-2,6.59-1.84.09,0,.18.01.28.02,9.01.65,12.86,11.79,6.18,17.89-12.45,11.36-27.94,25.92-34.27,33.3-2.34,2.73-1.75,7.6,2.24,8.5,14.29,3.23,29.3-8.11,41.44-14.28.9-.45,1.79-.91,2.68-1.37,14.42-7.36,31.75-.17,37.25,15.05.04.1.07.2.11.31,1.51,4.11,8.28,5.04,9.36,0,1.32-6.15,1.63-12.77.97-19.4,2.06-.86,3.83-2.71,4.11-5.16,1.83-15.73-2.41-34.66-8.01-49.32ZM280.56,98.98c-2.88,2.56-5.76,5.12-8.62,7.69-11.77,10.54-23.46,21.16-34.88,32.07-3,2.87-6.23,5.77-9.52,8.75-5.37,4.86-14,2.29-15.77-4.73l-.04-.15c-3.19-12.63-3.94-25.29,5.64-35.4,7.72-8.16,18.96-13.4,28.93-18.27,6.1-2.98,14.39-6.09,23.22-9.02,11.61-3.86,20.21,10.95,11.06,19.07Z"/>
          </g>
          <g>
            <path class="cls-4" d="M396.45,563.87c-2.56,6.63-20.11,5-26.04,5.14-6.91.16-13.82.34-20.73.64-14.33.64-28.97,2.83-43.34,1.86-26.7-1.8-71.96.03-81.42-6.84-4.44-3.22-7.4,2.27-4.36,6.74,4.62,6.8,27.44,10,41.74,9.85,9.65-.1,19.32-.38,28.97-.71,8.89-.31,64.05-1.93,82.91-2.34,12.08-.26,26.97.82,31.98-11.93,2.17-5.52-7.59-7.93-9.71-2.42Z"/>
            <path class="cls-4" d="M258.25,465.22c16.76,7.28,35.77,11.55,54.02,11.98,16.66.39,34.68-1.93,48.11-12.62,13.84-11,13.24-26.65-2.56-35.19-7.78-4.2-14.29,6-8.65,11.54-10.87,8.25-23.74,8.91-37.56,9.59-7.77.38-15.57.64-23.33.07-1.55-.12-3.1-.29-4.64-.49-.12-.49-.29-.97-.54-1.42-2.85-5.08-8.33-12.75-15.88-13.16.05-.07-1.23-.06-1.18-.13,4.35-5.68-6.75-9.36-11.55-5.19-5.6,4.87-10.34,11.66-9.83,19.44.54,8.29,6.64,12.59,13.58,15.6Z"/>
          </g>
          <path class="cls-8" d="M436.18,506.22c-.82-4.51-2.99-7.33-5.91-9.11,1.11-1.04,1.98-2.35,2.38-3.72,6.21-21.12-8.75-39.77-24.83-51.53-2.59-1.89-5.15-1.48-7.03.03-7.13-14.73-21.93-26.67-37.81-22.76-6.2,1.53-4.61,10.57,1.46,10.82,9.13.38,16.47,3.63,21.81,11.38,4.43,6.43,10.31,17.91,3.91,24.71-4.97,5.29-14.05,7.05-20.6,9.51-7.82,2.93-17.4,2.46-24.53,6.74-2.91,1.75-2.02,5.68.89,6.77,6.12,2.3,12.95.41,19.21-.68,3.62-.63,7.2-1.22,10.75-2.01-.21,2.33.66,4.89,2.35,6.75-12-.13-24-.15-35.98-.18-18.86-.06-37.7.07-56.55.42,3.41-.71,6.78-1.77,10.21-2.57,2.19-.5,1.96-3.58,0-4.2-4.34-1.38-8.31-3.69-12.61-5.15-3.48-1.18-7.28-1.47-10.91-2.01-8.57-1.26-17.23-2.78-25.29-6.08-7.18-2.95-15.18-8.18-16.03-16.63-.88-8.83,5.59-16.25,4.78-24.77-.3-3.2-3.63-5.83-6.75-3.87-3.64,2.29-6.36,6.13-8.17,10.5-.54-.04-1.13.04-1.75.28-.11.04-.22.09-.32.14-.17.23-.34.47-.51.7-4.45,6.13-8.99,12.17-13.65,18.13-5,6.4-9.94,12.82-14.47,19.56-2.04,3.04-4.12,6.05-6.37,8.91-1.46,6.19-1.66,12.57.23,18.12,0,.05-.02.11-.03.16-1.46,16.27-1.89,33.39-.69,49.66.32,4.3,2.82,13.95,5.72,11.76.1,12,5.34,18.62,14.41,27.13,4.03,3.78,10.86.06,9.37-5.45-2.62-9.66-7.02-18.6-9.26-28.45-2.47-10.86-2.61-23.32-.71-34.34,2.48-14.41,16.14-10.53,27.11-10.38,7.91.11,15.83.01,23.75-.08.09.05.17.12.27.17,8.27,4.3,19.38,3.26,28.5,3.66,10.82.47,21.65.72,32.48.76,20.97.08,41.92-.66,62.84-2.06.29.17.59.32.9.43,7.62,2.72,16.12.04,24,2.74,9.02,3.09,12.63,10.28,14.44,19.12,3.19,15.63,4.46,33.85-2.75,48.51-1.8,3.66,1.77,6.91,5.32,5.32,9.41-4.2,11.93-14.78,12.69-24.15.69-8.48.43-17.48-.83-26.16,1.81-.44,3.37-1.71,3.88-3.91,2.2-9.54,2.44-22.97.68-32.63Z"/>
          <g>
            <path class="cls-7" d="M335.4,328.82c-12.34,23.03-14.52,49.03-10.73,74.71.37,2.48,4.31,2.29,4.83,0,5.5-24.23,10.23-48.79,9.8-73.66-.03-2.01-2.89-2.94-3.9-1.06Z"/>
            <path class="cls-7" d="M282.63,329.87c-.43,24.86,4.31,49.43,9.8,73.66.52,2.29,4.46,2.49,4.83,0,3.79-25.68,1.61-51.68-10.73-74.71-1.01-1.88-3.86-.95-3.9,1.06Z"/>
          </g>
        </g>
        <path class="cls-1" d="M453.26,65.01c-4.01-22.08-11.01-30.47-17.88-34.98-7.47-4.9-15.49-5.67-20.52-5.66h-202.22c-5.03,0-13.06.76-20.52,5.66-6.87,4.51-13.86,12.9-17.88,34.98-9.58,52.68,12.24,95.18,12.24,95.18,8.47,16.49,21.56,42.24,48.44,52.89,13.41,5.31,31.12,7.18,51.56,9.33.25.03.49.05.74.08,17.65,1.83,35.43,1.83,53.07,0,.24-.03.49-.05.74-.08,20.44-2.16,38.15-4.02,51.56-9.33,26.89-10.64,39.98-36.4,48.44-52.89,0,0,21.82-42.5,12.24-95.18Z"/>
        <path class="cls-1" d="M264.19,248.97c-12.46,5.67-23.87,13.41-33.83,22.81"/>
        <path class="cls-1" d="M397.13,271.78c-9.95-9.39-21.35-17.13-33.8-22.8"/>
        <path class="cls-1" d="M230.37,271.78c22.1,16.25,51.33,26.14,83.38,26.14s61.28-9.89,83.38-26.14"/>
        <path class="cls-1" d="M230.37,271.78c6.11,15.78,11.97,32.9,17.25,51.29,10.56,36.82,16.57,71.13,19.84,101.56.76,7.09,4.72,13.46,10.78,17.21,8.35,5.16,20.63,10.56,35.51,10.26,14.88.31,27.17-5.09,35.51-10.26,6.06-3.75,10.02-10.12,10.78-17.21,3.27-30.43,9.28-64.73,19.84-101.56,5.27-18.4,11.14-35.51,17.25-51.29"/>
        <path class="cls-1" d="M375.35,217.7c-.38,4.96-1.6,12.59-5.67,20.98-3.15,6.51-6.98,11.33-10,14.56-5.25,2.24-11.62,4.5-19,6.22-10.4,2.43-19.65,3.06-26.93,3.02-7.29.04-16.54-.6-26.93-3.02-7.38-1.72-13.74-3.98-19-6.22-3.02-3.24-6.85-8.05-10-14.56-4.06-8.39-5.28-16.02-5.67-20.98"/>
        <path class="cls-1" d="M266.5,416.29h-11.13c-8.72,0-16.96,4.02-22.32,10.9l-51.5,66.06h264.4s-51.5-66.06-51.5-66.06c-5.36-6.88-13.6-10.9-22.32-10.9h-11.13"/>
        <path class="cls-1" d="M419.15,598.19h-210.8c-9.54,0-17.52-7.28-18.43-16.81l-8.37-88.11h264.4l-8.37,88.11c-.91,9.53-8.89,16.81-18.43,16.81Z"/>
        <path class="cls-1" d="M222.22,553.22l-1.7-18.42c-.47-5.12,3.56-9.54,8.7-9.54h169.05c5.14,0,9.18,4.42,8.7,9.54l-1.7,18.42c-.68,7.34-6.84,12.96-14.21,12.96h-154.65c-7.37,0-13.53-5.62-14.21-12.96Z"/>
      </g>
      <rect class="cls-2" width="627.5" height="627.5"/>
    </g>
  </g>
</svg>