<svg xmlns="http://www.w3.org/2000/svg" width="46" height="46" viewBox="0 0 512 512"><path d="M0 0 C23.1 0 46.2 0 70 0 C68.06 3.89 66.06 6.04 62.88 8.81 C62.38 9.25 61.89 9.69 61.38 10.15 C59.92 11.44 58.46 12.72 57 14 C56.29 14.62 55.58 15.25 54.85 15.89 C53.58 17 52.3 18.11 51.03 19.22 C47.81 22.05 44.64 24.92 41.46 27.79 C39.2 29.82 36.92 31.82 34.62 33.81 C28.14 39.47 25.89 42.26 25.2 50.88 C24.41 63.39 24.44 75.96 31 87 C31.32 87.71 31.64 88.41 31.97 89.14 C33.44 91.79 35.18 92.11 38 93 C39.49 93.5 39.49 93.5 41 94 C42.73 94.14 44.46 94.22 46.19 94.25 C47.09 94.28 47.99 94.3 48.92 94.33 C57.02 93.47 63.33 89.14 70 84.75 C71.45 83.81 72.91 82.87 74.36 81.93 C75.37 81.28 76.38 80.63 77.38 79.98 C82.94 76.38 88.56 72.87 94.19 69.38 C100.73 65.3 107.27 61.21 113.78 57.09 C115.36 56.09 116.94 55.09 118.52 54.1 C122.01 51.9 125.48 49.69 128.92 47.41 C129.52 47.02 130.12 46.63 130.74 46.23 C131.83 45.52 132.92 44.8 133.99 44.06 C135.43 43.13 135.43 43.13 138 42 C141.61 43.27 143.89 45.65 146.55 48.34 C146.99 48.78 147.42 49.21 147.87 49.67 C149.31 51.11 150.74 52.56 152.17 54.01 C153.18 55.02 154.18 56.04 155.19 57.05 C157.84 59.71 160.49 62.38 163.13 65.05 C167.35 69.31 171.57 73.56 175.8 77.81 C177.26 79.29 178.72 80.77 180.18 82.24 C184.65 86.75 189.18 91.1 194 95.23 C198.05 98.8 201.85 102.64 205.68 106.44 C206.12 106.88 206.56 107.32 207.02 107.77 C209.35 110.08 211.68 112.4 214.01 114.72 C216.4 117.1 218.81 119.47 221.21 121.83 C223.08 123.67 224.93 125.52 226.78 127.36 C227.66 128.24 228.55 129.12 229.44 129.99 C230.68 131.2 231.91 132.43 233.14 133.67 C233.84 134.36 234.54 135.05 235.26 135.77 C238.22 139.56 239.42 143.66 238.94 148.44 C238.24 153.25 236.43 156.57 233 160 C228.7 163.1 224.8 163.37 219.66 163.5 C212.54 162.17 207.81 157.14 203.04 152.05 C201.73 150.69 200.42 149.34 199.11 147.98 C197.08 145.86 195.05 143.74 193.04 141.6 C191.07 139.52 189.09 137.47 187.1 135.42 C186.5 134.78 185.91 134.13 185.3 133.47 C182.21 130.32 180.21 128.61 175.68 128.53 C173.33 128.7 172.1 128.95 170 130.06 C168.41 133.15 168.1 135.7 169 139 C172.55 144.23 177.53 148.55 182.05 152.93 C182.86 153.72 182.86 153.72 183.69 154.53 C187.07 157.82 187.07 157.82 190.48 161.08 C203.13 173.14 203.13 173.14 204 181 C203.99 185.48 202.56 189.08 200.25 192.88 C194.99 197.84 190.84 198.34 183.78 198.5 C177.31 197.34 172.77 192.04 168.36 187.52 C167.45 186.6 167.45 186.6 166.52 185.66 C164.59 183.72 162.67 181.76 160.75 179.81 C158.82 177.85 156.88 175.89 154.94 173.93 C153.74 172.72 152.54 171.5 151.34 170.28 C150.8 169.73 150.26 169.18 149.7 168.62 C149.23 168.14 148.75 167.65 148.26 167.16 C146.21 165.28 144.92 164.99 142.12 164.69 C138.95 164.75 138.95 164.75 136.62 166.62 C134.85 168.92 134.85 168.92 134.31 171.75 C135.83 178.94 143.19 184.24 148.3 189.26 C148.87 189.81 149.43 190.37 150.02 190.94 C152.38 193.26 154.75 195.58 157.13 197.88 C158.88 199.58 160.62 201.29 162.36 203.01 C162.9 203.52 163.44 204.03 163.99 204.56 C167.81 208.35 169.82 211.63 170.12 217.16 C169.52 221.83 168.59 224.7 165 228 C161.05 230.57 156.94 231.8 152.26 230.86 C149.4 229.77 147.72 228.24 145.47 226.17 C145.04 225.78 144.61 225.38 144.17 224.98 C140.75 221.8 137.48 218.48 134.24 215.12 C133.75 214.62 133.27 214.12 132.77 213.61 C130.77 211.55 128.78 209.49 126.81 207.41 C125.34 205.86 123.85 204.34 122.36 202.81 C121.93 202.34 121.49 201.87 121.04 201.39 C117.46 197.78 114.89 197.25 110 197 C107.68 197.35 107.68 197.35 106 198 C105.15 201.08 104.78 203.81 105 207 C106.14 208.97 106.14 208.97 107.88 210.7 C108.52 211.39 109.16 212.07 109.82 212.78 C114.23 217.27 118.69 221.7 123.19 226.1 C124.46 227.34 125.73 228.58 126.99 229.83 C127.74 230.56 128.48 231.29 129.25 232.04 C131.96 235.07 132.39 238.15 132.36 242.15 C131.71 245.5 129.48 247.76 127 250 C124.11 251.44 121.14 251.53 118 251 C113.06 248.63 109.36 244.8 105.44 241.06 C104.73 240.4 104.03 239.73 103.3 239.05 C98.46 234.44 93.71 229.75 89.01 224.99 C86.48 222.44 83.93 220.01 81.19 217.69 C77.06 214.19 73.3 210.34 69.5 206.5 C63.91 200.82 63.91 200.82 58 195.5 C53.2 191.46 48.9 186.92 44.49 182.47 C41.41 179.37 38.34 176.32 35 173.5 C30.93 170.07 27.24 166.28 23.5 162.5 C16.02 154.96 16.02 154.96 8 148 C7.56 147.64 7.12 147.28 6.67 146.92 C-3.23 138.9 -12.54 133.84 -25.61 133.9 C-26.23 133.9 -26.84 133.91 -27.48 133.91 C-29.42 133.91 -31.37 133.92 -33.31 133.94 C-34.64 133.94 -35.96 133.95 -37.29 133.95 C-40.53 133.96 -43.76 133.98 -47 134 C-44.77 126.28 -42.22 118.69 -39.56 111.11 C-39.13 109.85 -38.69 108.6 -38.25 107.34 C-37.08 103.99 -35.91 100.63 -34.73 97.27 C-34 95.18 -33.27 93.09 -32.53 90.99 C-25.54 70.99 -18.47 51.01 -11.31 31.06 C-11.11 30.5 -10.91 29.93 -10.7 29.35 C-9.36 25.62 -8.02 21.89 -6.68 18.16 C-6.18 16.78 -6.18 16.78 -5.67 15.38 C-5.36 14.52 -5.05 13.66 -4.74 12.77 C-4.47 12.04 -4.21 11.31 -3.93 10.55 C-2.64 7.03 -1.32 3.51 0 0 Z " fill="#5EAC24" transform="translate(144,150)"/><path d="M0 0 C6.11 4.13 8.05 12.3 10.32 19 C10.61 19.81 10.89 20.62 11.18 21.46 C11.78 23.22 12.39 24.97 12.99 26.73 C14.64 31.55 16.31 36.37 17.98 41.18 C18.33 42.19 18.68 43.2 19.04 44.24 C22.54 54.36 26.1 64.46 29.68 74.56 C30.75 77.56 31.81 80.57 32.87 83.57 C36.06 92.58 39.27 101.58 42.57 110.55 C43.99 114.41 45.4 118.27 46.8 122.13 C47.47 123.94 48.14 125.74 48.81 127.54 C56.33 147.6 56.33 147.6 53.63 155.28 C49.56 162.71 38.65 164.96 31.25 167.57 C30.21 167.94 29.18 168.31 28.11 168.69 C25.38 169.67 22.65 170.63 19.92 171.6 C17.7 172.38 15.48 173.18 13.27 173.98 C10.6 174.93 7.92 175.88 5.25 176.82 C4.27 177.18 3.28 177.53 2.27 177.9 C-11.82 182.83 -11.82 182.83 -19.11 179.68 C-24.79 175.59 -26.57 169.39 -28.85 163.05 C-29.23 162 -29.62 160.95 -30.02 159.87 C-34.66 147.18 -39.07 134.4 -43.49 121.63 C-45.65 115.41 -47.81 109.19 -49.97 102.96 C-50.33 101.93 -50.33 101.93 -50.7 100.87 C-53.9 91.69 -57.17 82.53 -60.53 73.41 C-61.18 71.65 -61.82 69.89 -62.47 68.13 C-64.45 62.74 -66.44 57.34 -68.47 51.96 C-69.17 50.04 -69.88 48.12 -70.59 46.2 C-70.91 45.36 -71.23 44.52 -71.57 43.65 C-73.72 37.72 -75.48 30.75 -73 24.65 C-69.89 19.69 -65.85 17.34 -60.47 15.42 C-59.41 15.04 -58.36 14.65 -57.27 14.26 C-56.12 13.86 -54.98 13.45 -53.83 13.05 C-52.64 12.63 -51.46 12.21 -50.27 11.79 C-47.79 10.9 -45.3 10.03 -42.82 9.16 C-39.65 8.04 -36.48 6.91 -33.32 5.78 C-30.87 4.9 -28.42 4.04 -25.97 3.17 C-24.8 2.76 -23.64 2.35 -22.47 1.93 C-6.59 -3.79 -6.59 -3.79 0 0 Z " fill="#5EAC24" transform="translate(457.75,112.5)"/><path d="M0 0 C1.18 0.41 2.37 0.83 3.55 1.24 C6.03 2.11 8.5 2.98 10.96 3.86 C14.11 4.98 17.26 6.08 20.42 7.18 C22.86 8.03 25.3 8.89 27.74 9.75 C28.9 10.16 30.06 10.57 31.23 10.97 C44.78 15.68 44.78 15.68 48.96 22.07 C52.13 31.45 47.63 40.74 44.35 49.46 C42.98 53.11 41.65 56.77 40.31 60.42 C39.58 62.42 38.85 64.41 38.12 66.4 C33.88 77.96 29.83 89.58 25.78 101.21 C22.08 111.82 18.35 122.42 14.62 133.02 C14.26 134.02 13.91 135.03 13.55 136.07 C11.69 141.35 9.82 146.63 7.94 151.91 C7.4 153.42 6.86 154.93 6.33 156.44 C5.61 158.49 4.88 160.52 4.15 162.56 C3.95 163.14 3.75 163.71 3.54 164.31 C1.6 169.64 -1.2 175.28 -6.38 178.02 C-13.13 179.9 -18.42 178.15 -24.82 175.83 C-26.33 175.3 -26.33 175.3 -27.88 174.76 C-30.13 173.98 -32.37 173.18 -34.62 172.37 C-38.03 171.14 -41.44 169.94 -44.87 168.74 C-47.86 167.69 -50.86 166.63 -53.85 165.56 C-55.32 165.04 -56.8 164.51 -58.27 163.99 C-60.36 163.26 -62.44 162.51 -64.52 161.75 C-65.14 161.54 -65.76 161.32 -66.4 161.1 C-70.91 159.44 -74.92 157.43 -77.5 153.17 C-80.66 145.48 -77.54 137.26 -74.82 129.92 C-74.26 128.34 -74.26 128.34 -73.69 126.72 C-72.67 123.87 -71.63 121.02 -70.59 118.17 C-69.5 115.17 -68.42 112.15 -67.35 109.14 C-65.79 104.8 -64.23 100.47 -62.67 96.13 C-59.27 86.74 -55.94 77.32 -52.62 67.89 C-50.21 61.04 -47.77 54.19 -45.33 47.34 C-43.38 41.85 -41.45 36.35 -39.53 30.84 C-38.35 27.46 -37.16 24.08 -35.96 20.7 C-35.42 19.14 -34.88 17.59 -34.34 16.03 C-33.61 13.91 -32.87 11.8 -32.12 9.7 C-31.81 8.78 -31.81 8.78 -31.5 7.85 C-29.66 2.79 -26.9 -0.16 -22.57 -3.29 C-14.68 -5.77 -7.41 -2.65 0 0 Z " fill="#5EAC24" transform="translate(78.3828125,114.98046875)"/><path d="M0 0 C0.96 0.21 1.92 0.42 2.92 0.64 C6.07 1.33 9.22 2.02 12.37 2.72 C14.57 3.2 16.77 3.69 18.97 4.17 C23.56 5.19 28.16 6.2 32.75 7.22 C38.06 8.4 43.36 9.57 48.67 10.73 C53.8 11.85 58.92 12.98 64.04 14.12 C66.21 14.6 68.39 15.08 70.56 15.55 C73.59 16.22 76.62 16.89 79.65 17.57 C80.55 17.76 81.45 17.96 82.38 18.16 C83.21 18.34 84.03 18.53 84.88 18.73 C85.59 18.88 86.31 19.04 87.05 19.2 C89.98 20.31 91.51 22.01 92.83 24.81 C93.2 25.89 93.2 25.89 93.57 26.99 C93.86 27.82 94.14 28.65 94.44 29.5 C94.74 30.4 95.04 31.31 95.35 32.24 C95.68 33.19 96.01 34.15 96.34 35.13 C97.05 37.2 97.76 39.27 98.46 41.34 C99.57 44.63 100.7 47.93 101.83 51.22 C102.02 51.77 102.21 52.33 102.41 52.9 C102.8 54.03 103.19 55.17 103.57 56.3 C104.17 58.03 104.76 59.77 105.36 61.5 C109.47 73.5 113.69 85.46 117.94 97.41 C118.65 99.43 119.37 101.45 120.08 103.47 C123.03 111.78 125.99 120.09 129 128.37 C129.23 128.98 129.45 129.59 129.68 130.22 C130.65 132.89 131.62 135.55 132.6 138.21 C132.92 139.08 133.24 139.95 133.57 140.84 C133.84 141.57 134.1 142.29 134.38 143.04 C134.94 144.91 134.94 144.91 134.94 147.91 C132.88 148.45 130.82 148.97 128.75 149.48 C128.17 149.63 127.59 149.78 127 149.94 C123.28 150.84 120.58 151.13 116.94 149.91 C115.71 148 115.71 148 114.75 145.51 C111.71 138.86 107.04 134.37 101.9 129.35 C100.92 128.38 99.94 127.41 98.97 126.44 C96.43 123.91 93.87 121.4 91.31 118.89 C89.22 116.83 87.14 114.76 85.05 112.69 C82.57 110.22 80.08 107.75 77.58 105.29 C77.11 104.82 76.63 104.35 76.15 103.86 C74.81 102.54 73.47 101.22 72.12 99.91 C71.36 99.16 70.6 98.41 69.82 97.64 C68.04 95.85 68.04 95.85 65.94 94.91 C65.94 94.25 65.94 93.59 65.94 92.91 C65.09 92.56 65.09 92.56 64.23 92.19 C61.43 90.63 59.54 88.75 57.28 86.47 C56.83 86.02 56.39 85.57 55.92 85.11 C54.45 83.63 52.98 82.14 51.51 80.65 C50.48 79.61 49.45 78.58 48.42 77.54 C45.7 74.81 42.99 72.08 40.28 69.34 C35.96 64.97 31.63 60.61 27.3 56.26 C25.79 54.74 24.29 53.23 22.79 51.71 C14.25 41.68 14.25 41.68 2.94 36.91 C-5.07 39.26 -12.56 45.37 -19.46 49.9 C-23.98 52.87 -28.55 55.78 -33.12 58.66 C-34.29 59.4 -34.29 59.4 -35.48 60.15 C-39.98 62.98 -44.49 65.81 -49 68.62 C-49.51 68.94 -50.02 69.25 -50.54 69.58 C-53.11 71.18 -55.69 72.79 -58.26 74.39 C-62.92 77.28 -67.54 80.21 -72.09 83.28 C-72.85 83.79 -73.61 84.3 -74.4 84.83 C-75.79 85.77 -77.17 86.71 -78.54 87.68 C-82.98 90.67 -86.71 91.71 -92.06 91.91 C-95.3 85.75 -95.64 80.31 -95.69 73.41 C-95.73 72.41 -95.78 71.4 -95.82 70.36 C-95.89 63.13 -95.89 63.13 -93.59 59.76 C-91.84 57.98 -90.04 56.44 -88.06 54.91 C-87.37 54.29 -86.69 53.66 -85.98 53.02 C-85.12 52.29 -85.12 52.29 -84.25 51.54 C-79.46 47.4 -74.76 43.16 -70.06 38.91 C-64.78 34.15 -59.49 29.4 -54.12 24.73 C-51.75 22.64 -49.41 20.53 -47.06 18.41 C-42.76 14.54 -38.46 10.68 -34.06 6.91 C-33.39 6.34 -33.39 6.34 -32.71 5.76 C-31.25 4.51 -29.78 3.27 -28.31 2.04 C-27.62 1.45 -27.62 1.45 -26.92 0.85 C-19 -5.72 -9.19 -2.04 0 0 Z " fill="#5EAC24" transform="translate(280.06201171875,137.08544921875)"/></svg>