<svg xmlns="http://www.w3.org/2000/svg" viewBox="0 0 512 512"><path d="M0 0 C0.87 0.49 0.87 0.49 1.75 0.98 C10.81 6.54 17.3 15.69 20.25 25.81 C22.84 37.74 20.4 49.31 13.86 59.52 C8.85 66.18 2.5 71.69 -3.8 77.09 C-7.12 79.97 -10.33 82.96 -13.55 85.93 C-17.18 89.27 -20.88 92.51 -24.67 95.66 C-26.23 96.92 -26.23 96.92 -26 99 C-24.98 99.1 -24.98 99.1 -23.93 99.2 C41.82 105.59 106.24 127.99 157.45 170.71 C159.01 172.01 160.59 173.29 162.18 174.57 C169.98 180.96 177.17 187.96 184.31 195.06 C185.01 195.75 185.01 195.75 185.72 196.45 C192.29 202.96 198.26 209.75 204 217 C205.17 218.45 206.35 219.9 207.52 221.34 C215.83 231.76 223.23 242.53 230 254 C230.47 254.8 230.94 255.59 231.43 256.41 C255.42 297.51 270.19 346.04 270.19 393.78 C270.19 395.89 270.21 398 270.22 400.12 C270.23 401.47 270.23 402.83 270.23 404.18 C270.24 404.81 270.24 405.43 270.25 406.08 C270.23 411.13 268.71 413.95 266 418 C265.27 419.39 264.54 420.79 263.81 422.19 C258.91 430.97 253 436.51 244 441 C242.99 441.51 242.99 441.51 241.96 442.04 C233.04 445.74 220.99 445.39 211.94 442.38 C201.23 437.73 192.69 429.55 188.06 418.81 C185.68 412.77 184.91 407.01 184.64 400.55 C182.27 350.68 167.18 304.97 134.35 266.58 C133.27 265.32 132.21 264.04 131.15 262.76 C121.59 251.36 110.66 241.09 98.7 232.26 C97.04 231.03 95.39 229.78 93.75 228.52 C57.5 201.32 5.91 181.49 -40 183 C-30.15 192.23 -30.15 192.23 -20.05 201.2 C-17.33 203.59 -14.67 206.04 -12 208.5 C-4.43 215.6 -4.43 215.6 3.57 222.18 C11.65 228.31 16.37 237.19 18.69 246.88 C20.08 260.78 17.08 271.85 8.48 282.97 C2.11 290.05 -7.31 294.51 -16.76 295.2 C-33.95 295.48 -43.71 287.5 -55.65 276.26 C-57.37 274.65 -59.15 273.1 -60.94 271.56 C-65.12 267.94 -69.16 264.17 -73.22 260.4 C-76.73 257.15 -80.29 253.97 -83.91 250.84 C-86.64 248.43 -89.32 245.97 -92 243.5 C-95.3 240.46 -98.61 237.44 -102 234.5 C-105.93 231.09 -109.75 227.57 -113.58 224.05 C-116.36 221.49 -119.15 218.97 -122 216.5 C-125.93 213.09 -129.75 209.57 -133.58 206.04 C-136.33 203.51 -139.11 201.01 -141.94 198.56 C-146.12 194.94 -150.16 191.17 -154.21 187.41 C-157.19 184.64 -160.21 181.94 -163.31 179.31 C-172.64 171.11 -179.41 162.47 -180.44 149.77 C-181.06 135.82 -177.13 125.68 -168 115 C-166.18 113.2 -164.31 111.56 -162.33 109.94 C-159.28 107.4 -156.4 104.7 -153.5 102 C-149.42 98.21 -145.3 94.48 -141.09 90.84 C-138.36 88.43 -135.68 85.97 -133 83.5 C-129.09 79.9 -125.14 76.36 -121.12 72.88 C-117.84 69.98 -114.64 67.01 -111.42 64.04 C-108.67 61.51 -105.89 59.01 -103.06 56.56 C-99.47 53.45 -95.98 50.23 -92.5 47 C-88.42 43.21 -84.3 39.48 -80.09 35.84 C-77.36 33.43 -74.68 30.97 -72 28.5 C-68.09 24.9 -64.15 21.35 -60.12 17.88 C-58.44 16.39 -56.8 14.88 -55.16 13.34 C-40.04 -0.87 -20.42 -11.76 0 0 Z " fill="#9DFA4E" transform="translate(211,36)"/><path d="M0 0 C0.8 0 1.59 0 2.42 0 C8.69 0.14 13.76 1.21 19.25 4.38 C20.12 4.86 20.12 4.86 21 5.36 C30.06 10.91 36.55 20.06 39.5 30.19 C42.09 42.12 39.65 53.69 33.11 63.9 C28.1 70.56 21.75 76.06 15.45 81.46 C12.13 84.35 8.92 87.33 5.7 90.31 C2.07 93.65 -1.63 96.88 -5.42 100.04 C-6.98 101.3 -6.98 101.3 -6.75 103.38 C-5.73 103.47 -5.73 103.47 -4.68 103.57 C61.07 109.96 125.49 132.37 176.7 175.08 C178.26 176.38 179.84 177.66 181.43 178.94 C189.23 185.34 196.42 192.33 203.56 199.44 C204.26 200.13 204.26 200.13 204.97 200.83 C211.54 207.34 217.51 214.13 223.25 221.38 C224.42 222.82 225.6 224.27 226.77 225.72 C235.08 236.14 242.48 246.9 249.25 258.38 C249.72 259.17 250.19 259.97 250.68 260.79 C274.67 301.88 289.44 350.41 289.44 398.15 C289.44 400.27 289.46 402.38 289.47 404.49 C289.48 405.85 289.48 407.2 289.48 408.55 C289.49 409.18 289.49 409.81 289.5 410.45 C289.48 413.94 289.11 416.4 287.25 419.38 C285.66 417.79 285.86 415.98 285.59 413.79 C283.82 400.3 281.2 387.32 277.69 374.19 C277.49 373.45 277.3 372.71 277.1 371.95 C276.53 369.83 275.95 367.7 275.37 365.58 C275.2 364.96 275.03 364.33 274.86 363.69 C273.81 359.95 272.5 356.45 270.93 352.91 C270.18 351.21 269.53 349.5 268.93 347.75 C265.67 338.61 261.82 330 257.31 321.41 C256.24 319.36 255.2 317.29 254.16 315.22 C242.38 292.03 226.48 271.17 208.82 252.16 C206.67 249.85 204.6 247.47 202.56 245.06 C199.75 241.82 196.72 239.03 193.45 236.27 C191.46 234.55 189.54 232.78 187.63 230.98 C166.76 211.48 141.87 195.79 116.25 183.35 C114.96 182.72 113.67 182.09 112.38 181.45 C103.31 176.99 94.08 173.34 84.56 169.95 C81.99 169.03 79.57 168.06 77.07 166.91 C71.33 164.41 65.12 163.05 59.06 161.5 C58.38 161.33 57.7 161.15 57 160.97 C32.29 154.68 7.64 151.27 -17.75 149.38 C-19.16 149.27 -19.16 149.27 -20.59 149.16 C-62.03 146.11 -105.91 147.62 -146.74 155.5 C-150.84 156.28 -154.58 156.56 -158.75 156.38 C-159.44 142.05 -156.9 131.56 -147.09 120.5 C-143.59 116.93 -139.84 113.65 -136.05 110.39 C-133.24 107.93 -130.5 105.41 -127.75 102.88 C-123.84 99.27 -119.89 95.73 -115.88 92.25 C-113.13 89.83 -110.44 87.35 -107.75 84.88 C-103.84 81.27 -99.89 77.73 -95.88 74.25 C-92.59 71.36 -89.39 68.38 -86.17 65.42 C-83.42 62.89 -80.64 60.39 -77.81 57.94 C-74.22 54.83 -70.73 51.61 -67.25 48.38 C-63.17 44.59 -59.05 40.86 -54.84 37.21 C-52.11 34.81 -49.43 32.34 -46.75 29.88 C-42.8 26.24 -38.81 22.64 -34.75 19.13 C-32.79 17.41 -30.86 15.65 -28.94 13.89 C-18.53 4.38 -18.53 4.38 -14.75 4.38 C-14.75 3.72 -14.75 3.05 -14.75 2.38 C-9.76 0.39 -5.34 -0.01 0 0 Z " fill="#63F818" transform="translate(191.75,31.625)"/></svg>