<svg xmlns="http://www.w3.org/2000/svg" viewBox="0 0 512 512"><path d="M0 0 C96.36 0 192.72 0 292 0 C292.99 6.6 293.98 13.2 295 20 C301.33 43.08 314.24 62.06 335.23 74.15 C346.45 80.32 357.77 83.88 370.51 85.13 C371.74 85.26 371.74 85.26 373 85.39 C375 85.6 377 85.8 379 86 C379.05 98.95 379.08 111.89 379.1 124.84 C379.11 130.85 379.13 136.87 379.15 142.88 C379.35 195.78 379.35 195.78 377 217 C376.91 217.79 376.83 218.59 376.74 219.4 C376.22 223.96 375.56 228.48 374.81 233 C374.71 233.65 374.6 234.3 374.49 234.97 C366.51 284.13 348.32 332.91 320 374 C319.26 375.11 318.52 376.21 317.78 377.32 C307.11 393.17 295.38 409.14 281.59 422.41 C279.9 424.1 278.4 425.86 276.88 427.69 C271.74 433.62 265.84 438.78 260 444 C259.41 444.53 258.81 445.07 258.2 445.62 C244.36 457.99 229.66 469.03 214 479 C213.43 479.37 212.85 479.73 212.26 480.11 C193.8 491.77 174.04 501.39 154 510 C153.16 510.37 152.31 510.74 151.45 511.13 C144.21 513.71 136.8 509.52 130.25 506.56 C128.74 505.89 128.74 505.89 127.2 505.2 C99.11 492.59 73.11 477.17 49 458 C48.53 457.63 48.06 457.25 47.57 456.87 C41.03 451.68 34.84 446.18 28.72 440.5 C26.6 438.53 24.42 436.65 22.19 434.81 C19.07 432.19 16.51 429.23 13.88 426.12 C11.88 423.87 9.78 421.78 7.62 419.69 C3.19 415.28 -0.79 410.6 -4.66 405.7 C-6.17 403.79 -7.7 401.9 -9.22 400 C-17.91 389.12 -25.63 377.81 -33 366 C-33.41 365.35 -33.82 364.7 -34.24 364.03 C-61.77 320.34 -78.59 270.12 -84.69 218.94 C-84.81 217.95 -84.93 216.96 -85.05 215.93 C-87.03 198.16 -87.15 180.29 -87.13 162.43 C-87.13 160.24 -87.13 158.05 -87.14 155.86 C-87.14 151.32 -87.14 146.79 -87.13 142.25 C-87.13 137.01 -87.13 131.76 -87.13 126.52 C-87.14 121.44 -87.14 116.36 -87.13 111.28 C-87.13 109.13 -87.13 106.98 -87.14 104.83 C-87.14 101.85 -87.13 98.87 -87.13 95.88 C-87.13 94.99 -87.13 94.1 -87.14 93.18 C-87.13 92.38 -87.13 91.57 -87.13 90.74 C-87.13 90.04 -87.13 89.34 -87.13 88.61 C-87 87 -87 87 -86 86 C-84.23 85.8 -82.46 85.61 -80.68 85.46 C-57.27 83.31 -35.3 73.23 -20 55 C-7.43 38.08 -2.63 21.06 0 0 Z " fill="#FEDB0C" transform="translate(110,0)"/><path d="M0 0 C48.18 0 96.36 0 146 0 C146.99 6.6 147.98 13.2 149 20 C155.33 43.08 168.24 62.06 189.23 74.15 C200.45 80.32 211.77 83.88 224.51 85.13 C225.74 85.26 225.74 85.26 227 85.39 C229 85.6 231 85.8 233 86 C233.05 98.95 233.08 111.89 233.1 124.84 C233.11 130.85 233.13 136.87 233.15 142.88 C233.35 195.78 233.35 195.78 231 217 C230.87 218.19 230.87 218.19 230.74 219.4 C230.22 223.96 229.56 228.48 228.81 233 C228.71 233.65 228.6 234.3 228.49 234.97 C220.51 284.13 202.32 332.91 174 374 C173.26 375.11 172.52 376.21 171.78 377.32 C161.11 393.17 149.38 409.14 135.59 422.41 C133.9 424.1 132.4 425.86 130.88 427.69 C125.74 433.62 119.84 438.78 114 444 C113.11 444.8 113.11 444.8 112.2 445.62 C98.36 457.99 83.66 469.03 68 479 C67.43 479.37 66.85 479.73 66.26 480.11 C47.8 491.77 28.04 501.39 8 510 C7.14 510.37 6.29 510.74 5.41 511.12 C3 512 3 512 0 512 C-3.32 481.31 -5.51 450.6 -6.75 419.75 C-6.8 418.62 -6.84 417.49 -6.89 416.32 C-9.05 363 -9.72 314.36 27.64 272.96 C35.91 264 44.83 255.82 54.06 247.88 C54.71 247.32 55.35 246.76 56.02 246.19 C67.53 236.29 79.28 226.68 91.65 217.86 C92.21 217.46 92.77 217.06 93.35 216.65 C95.97 214.78 98.6 212.95 101.27 211.15 C102.18 210.52 103.09 209.9 104.02 209.25 C104.82 208.71 105.61 208.18 106.44 207.63 C106.95 207.09 107.47 206.55 108 206 C107.73 202.28 105.89 200.53 103.31 197.97 C102.14 196.8 102.14 196.8 100.94 195.6 C100.08 194.76 99.23 193.92 98.37 193.08 C97.5 192.21 96.62 191.34 95.75 190.47 C93.46 188.19 91.16 185.92 88.85 183.65 C86.5 181.33 84.16 179 81.81 176.67 C77.22 172.1 72.61 167.55 68 163 C63.71 164.66 60.94 167.8 57.78 171.01 C57.17 171.63 56.55 172.24 55.92 172.87 C53.9 174.9 51.88 176.94 49.86 178.98 C48.46 180.39 47.06 181.8 45.65 183.21 C41.96 186.91 38.27 190.63 34.58 194.34 C28.67 200.3 22.75 206.25 16.83 212.19 C14.75 214.27 12.68 216.36 10.62 218.45 C9.36 219.71 8.09 220.98 6.83 222.25 C6.25 222.83 5.67 223.42 5.08 224.02 C3.74 225.37 2.37 226.69 1 228 C0.67 228 0.34 228 0 228 C0 152.76 0 77.52 0 0 Z " fill="#FBBF00" transform="translate(256,0)"/><path d="M0 0 C3.29 1.44 5.5 3.23 8.05 5.74 C9.23 6.9 9.23 6.9 10.43 8.07 C11.27 8.91 12.11 9.75 12.96 10.59 C13.83 11.45 14.7 12.31 15.57 13.17 C17.39 14.98 19.21 16.78 21.02 18.59 C23.35 20.91 25.69 23.22 28.03 25.52 C29.84 27.29 31.63 29.08 33.42 30.86 C34.27 31.72 35.14 32.57 36.01 33.42 C37.21 34.6 38.41 35.8 39.6 37 C40.28 37.68 40.96 38.35 41.67 39.05 C43 41 43 41 42.84 42.84 C41.72 45.73 40.07 47.31 37.87 49.5 C37.44 49.93 37.01 50.37 36.56 50.82 C35.11 52.27 33.65 53.72 32.19 55.17 C31.15 56.21 30.11 57.25 29.07 58.3 C26.24 61.13 23.4 63.96 20.56 66.78 C17.58 69.74 14.61 72.71 11.64 75.68 C6.65 80.67 1.65 85.65 -3.35 90.63 C-9.76 97.01 -16.15 103.39 -22.54 109.78 C-28.05 115.28 -33.56 120.78 -39.08 126.28 C-40.84 128.04 -42.61 129.81 -44.37 131.57 C-47.15 134.35 -49.94 137.12 -52.73 139.9 C-53.75 140.91 -54.76 141.92 -55.78 142.94 C-60.82 147.97 -65.89 152.92 -71.31 157.54 C-74.09 159.94 -76.67 162.54 -79.25 165.15 C-79.79 165.7 -80.34 166.24 -80.9 166.8 C-82.6 168.51 -84.3 170.23 -86 171.94 C-87.17 173.11 -88.34 174.28 -89.5 175.46 C-92.34 178.3 -95.17 181.15 -98 184 C-102.98 179.85 -107.65 175.49 -112.22 170.89 C-112.9 170.21 -113.59 169.53 -114.29 168.82 C-116.53 166.58 -118.76 164.34 -121 162.1 C-122.56 160.54 -124.11 158.98 -125.67 157.42 C-129.35 153.74 -133.01 150.07 -136.68 146.39 C-140.86 142.2 -145.04 138.01 -149.23 133.83 C-157.82 125.22 -166.41 116.61 -175 108 C-173.55 104.68 -171.75 102.51 -169.19 99.97 C-168.41 99.19 -167.63 98.4 -166.83 97.6 C-165.98 96.76 -165.12 95.92 -164.27 95.08 C-163.4 94.21 -162.53 93.34 -161.66 92.47 C-159.37 90.19 -157.08 87.92 -154.78 85.65 C-152.44 83.32 -150.1 81 -147.77 78.67 C-143.18 74.11 -138.59 69.55 -134 65 C-131.05 66.33 -128.98 67.78 -126.7 70.07 C-126.08 70.69 -125.46 71.31 -124.82 71.95 C-124.16 72.62 -123.51 73.29 -122.83 73.98 C-122.15 74.66 -121.46 75.35 -120.76 76.05 C-118.59 78.24 -116.42 80.43 -114.25 82.62 C-112.78 84.11 -111.3 85.59 -109.82 87.08 C-106.21 90.71 -102.6 94.35 -99 98 C-96.31 96.76 -94.27 95.52 -92.18 93.42 C-91.66 92.91 -91.14 92.39 -90.61 91.86 C-90.06 91.31 -89.51 90.75 -88.95 90.18 C-88.37 89.6 -87.8 89.02 -87.2 88.43 C-85.98 87.21 -84.76 85.98 -83.55 84.75 C-81.71 82.9 -79.86 81.05 -78.02 79.2 C-76.83 78.01 -75.64 76.81 -74.45 75.62 C-73.91 75.07 -73.37 74.53 -72.81 73.97 C-70.09 71.22 -67.48 68.42 -64.97 65.47 C-59.32 58.95 -53.08 52.96 -46.97 46.88 C-45.61 45.52 -44.26 44.16 -42.9 42.81 C-39.35 39.26 -35.8 35.72 -32.24 32.17 C-28.61 28.55 -24.97 24.92 -21.34 21.29 C-14.23 14.19 -7.12 7.1 0 0 Z " fill="#E6E5E3" transform="translate(322,162)"/><path d="M0 0 C2.95 1.33 5.02 2.78 7.3 5.07 C7.92 5.69 8.54 6.31 9.18 6.95 C9.84 7.62 10.49 8.29 11.17 8.98 C12.2 10 12.2 10 13.24 11.05 C15.41 13.24 17.58 15.43 19.75 17.62 C21.22 19.11 22.7 20.59 24.18 22.08 C27.79 25.71 31.4 29.35 35 33 C37.81 31.72 39.85 30.4 42.01 28.2 C42.84 27.36 42.84 27.36 43.7 26.5 C44.29 25.9 44.87 25.3 45.48 24.68 C46.09 24.06 46.71 23.44 47.34 22.8 C49.29 20.83 51.24 18.85 53.19 16.88 C55.15 14.89 57.11 12.91 59.07 10.92 C60.29 9.69 61.51 8.46 62.72 7.22 C63.27 6.66 63.82 6.11 64.38 5.54 C64.86 5.05 65.35 4.56 65.84 4.05 C67 3 67 3 68 3 C68.96 16.32 69.63 29.65 70 43 C70.03 43.97 70.05 44.94 70.08 45.94 C71.13 87.97 71.13 87.97 58.75 102.13 C52.05 108.91 44.35 114.44 36 119 C31.02 114.85 26.35 110.49 21.78 105.89 C20.75 104.87 20.75 104.87 19.71 103.82 C17.47 101.58 15.24 99.34 13 97.1 C11.44 95.54 9.89 93.98 8.33 92.42 C4.65 88.74 0.99 85.07 -2.68 81.39 C-6.86 77.2 -11.04 73.01 -15.23 68.83 C-23.82 60.22 -32.41 51.61 -41 43 C-39.55 39.68 -37.75 37.51 -35.19 34.97 C-34.41 34.19 -33.63 33.4 -32.83 32.6 C-31.98 31.76 -31.12 30.92 -30.27 30.08 C-29.4 29.21 -28.53 28.34 -27.66 27.47 C-25.37 25.19 -23.08 22.92 -20.78 20.65 C-18.44 18.32 -16.1 16 -13.77 13.67 C-9.18 9.11 -4.59 4.55 0 0 Z " fill="#F1F0F1" transform="translate(188,227)"/></svg>