<svg xmlns="http://www.w3.org/2000/svg" width="46" height="46" viewBox="0 0 512 512"><path d="M0 0 C1.2 -0.01 2.39 -0.01 3.59 -0.02 C6.88 -0.04 10.16 -0.03 13.45 -0.02 C16.99 -0.01 20.54 -0.02 24.08 -0.04 C31.02 -0.06 37.97 -0.06 44.91 -0.04 C50.55 -0.03 56.19 -0.03 61.84 -0.03 C62.64 -0.03 63.44 -0.04 64.27 -0.04 C65.9 -0.04 67.53 -0.04 69.16 -0.04 C84.45 -0.06 99.75 -0.04 115.04 -0.01 C128.17 0.01 141.29 0.01 154.42 -0.02 C169.66 -0.04 184.9 -0.05 200.14 -0.04 C201.76 -0.04 203.39 -0.04 205.01 -0.03 C205.81 -0.03 206.61 -0.03 207.43 -0.03 C213.07 -0.03 218.7 -0.03 224.34 -0.05 C231.21 -0.06 238.07 -0.06 244.94 -0.03 C248.45 -0.02 251.95 -0.01 255.46 -0.03 C258.66 -0.04 261.87 -0.04 265.08 -0.01 C266.79 -0 268.5 -0.02 270.21 -0.03 C278.51 0.07 278.51 0.07 281.61 3.02 C283.61 5.9 284.05 7.29 284.05 10.76 C284.05 11.71 284.06 12.67 284.06 13.65 C284.03 14.64 284.01 15.62 283.99 16.63 C284 17.62 284.01 18.6 284.02 19.62 C283.98 23.82 283.73 26.94 282 30.8 C278.04 33.62 274.39 33.17 269.67 32.95 C266.62 32.84 263.57 32.74 260.42 32.63 C260.42 42.86 260.42 53.09 260.42 63.63 C263.96 63.6 267.5 63.57 271.15 63.53 C273.98 63.51 276.82 63.49 279.65 63.48 C282.64 63.46 285.62 63.44 288.61 63.41 C292.04 63.37 295.47 63.36 298.9 63.34 C300.49 63.32 300.49 63.32 302.12 63.3 C308.79 63.29 313.27 63.67 318.29 68.39 C318.76 68.99 319.24 69.58 319.74 70.2 C320.23 70.8 320.72 71.4 321.22 72.01 C323.08 74.53 323.55 76.12 323.57 79.19 C323.58 80.3 323.58 80.3 323.59 81.43 C323.59 82.24 323.6 83.05 323.6 83.89 C323.61 84.74 323.61 85.6 323.62 86.48 C323.64 89.31 323.65 92.15 323.66 94.98 C323.67 95.95 323.67 96.92 323.67 97.92 C323.69 103.05 323.71 108.18 323.72 113.32 C323.73 118.61 323.76 123.9 323.8 129.19 C323.83 133.26 323.84 137.34 323.84 141.41 C323.85 143.36 323.86 145.31 323.88 147.26 C323.9 150 323.9 152.74 323.89 155.48 C323.91 156.67 323.91 156.67 323.93 157.89 C323.85 166.61 319.95 174.98 313.88 181.22 C308.28 186.37 302.11 189.7 295.34 193.01 C294.19 193.58 293.04 194.15 291.89 194.72 C289.5 195.91 287.11 197.1 284.71 198.27 C281.64 199.78 278.58 201.3 275.51 202.83 C273.15 204.01 270.78 205.18 268.41 206.35 C267.28 206.91 266.15 207.47 265.02 208.03 C263.45 208.81 261.87 209.59 260.3 210.36 C259.4 210.8 258.51 211.24 257.58 211.69 C255.42 212.63 255.42 212.63 253.42 212.63 C253.37 213.1 253.32 213.56 253.27 214.04 C250.31 232.04 237.27 248.45 225.42 261.63 C224.34 262.84 224.34 262.84 223.24 264.07 C208.05 280.12 186.07 292.93 164.42 297.63 C163.1 297.63 161.78 297.63 160.42 297.63 C164.71 318.75 169 339.87 173.42 361.63 C182 361.96 190.58 362.29 199.42 362.63 C208.59 367.22 208.59 367.22 211.42 371.63 C212.38 374.52 212.54 376.31 212.52 379.3 C212.52 380.2 212.51 381.09 212.51 382.01 C212.5 382.94 212.49 383.87 212.49 384.82 C212.48 385.76 212.48 386.7 212.47 387.67 C212.46 389.99 212.44 392.31 212.42 394.63 C213.01 394.61 213.6 394.59 214.21 394.57 C216.93 394.49 219.64 394.44 222.36 394.38 C223.29 394.35 224.21 394.32 225.17 394.28 C232.79 394.18 238.69 395.68 244.73 400.46 C245.25 401.07 245.76 401.69 246.3 402.32 C246.83 402.92 247.37 403.53 247.92 404.15 C255.4 416.5 252.42 427.69 252.42 442.63 C173.88 442.63 95.34 442.63 14.42 442.63 C14.42 409.76 14.42 409.76 20.57 401.88 C21.31 401.28 22.04 400.69 22.8 400.07 C23.53 399.45 24.26 398.83 25.01 398.19 C31.21 394.19 37.16 394.38 44.3 394.51 C45.27 394.52 46.25 394.53 47.25 394.54 C49.64 394.56 52.03 394.59 54.42 394.63 C54.39 393.78 54.39 393.78 54.36 392.91 C54.28 390.3 54.22 387.69 54.17 385.07 C54.14 384.18 54.11 383.28 54.07 382.36 C53.99 376.53 54.6 372.21 58.42 367.63 C68.53 358.96 79.37 362.18 93.42 361.63 C97.71 340.51 102 319.39 106.42 297.63 C104.11 297.3 101.8 296.97 99.42 296.63 C82.54 292.33 66.74 283.81 53.42 272.63 C52.58 271.93 51.73 271.22 50.86 270.49 C36.02 257.6 25.8 243.13 17.25 225.52 C16.96 224.93 16.67 224.34 16.37 223.73 C15.42 221.63 15.42 221.63 14.77 219.51 C13.06 214.41 11.08 211.98 6.35 209.37 C4.25 208.34 2.14 207.35 0.01 206.38 C-1.13 205.84 -2.26 205.29 -3.4 204.74 C-6.38 203.3 -9.37 201.89 -12.37 200.49 C-17.15 198.26 -21.92 195.99 -26.67 193.7 C-28.31 192.91 -29.96 192.15 -31.62 191.39 C-41.65 186.59 -50.55 180.4 -54.58 169.63 C-54.92 168.95 -55.25 168.26 -55.6 167.55 C-56.91 163.64 -56.87 160.09 -56.87 155.99 C-56.87 155.13 -56.88 154.27 -56.89 153.39 C-56.91 150.56 -56.91 147.72 -56.91 144.89 C-56.92 142.91 -56.93 140.94 -56.93 138.97 C-56.95 134.83 -56.95 130.7 -56.95 126.56 C-56.95 121.27 -56.97 115.97 -57.01 110.68 C-57.03 106.61 -57.04 102.53 -57.03 98.45 C-57.04 96.5 -57.05 94.55 -57.06 92.6 C-57.08 89.87 -57.08 87.14 -57.06 84.41 C-57.07 83.6 -57.09 82.8 -57.1 81.97 C-57.03 75.77 -55.34 72.48 -50.98 67.99 C-50.5 67.6 -50.01 67.22 -49.51 66.82 C-49.03 66.42 -48.54 66.03 -48.04 65.62 C-44.98 63.57 -42.2 63.51 -38.65 63.52 C-37.65 63.52 -36.65 63.52 -35.61 63.52 C-34.54 63.53 -33.46 63.53 -32.35 63.54 C-31.24 63.54 -30.14 63.54 -29 63.54 C-26.06 63.55 -23.13 63.56 -20.19 63.57 C-17.2 63.58 -14.2 63.58 -11.2 63.59 C-5.33 63.6 0.55 63.62 6.42 63.63 C6.42 53.4 6.42 43.17 6.42 32.63 C0.35 32.83 0.35 32.83 -5.72 33.09 C-9.66 33.15 -11.89 33.13 -15.15 30.8 C-17.27 26.09 -17.2 21.75 -17.14 16.63 C-17.18 15.16 -17.18 15.16 -17.21 13.65 C-17.21 12.7 -17.21 11.74 -17.21 10.76 C-17.21 9.9 -17.21 9.03 -17.21 8.14 C-16.51 5.35 -15.46 3.68 -13.38 1.7 C-9.39 -0.66 -4.5 -0.05 0 0 Z M-23.58 95.63 C-23.58 116.42 -23.58 137.21 -23.58 158.63 C-9.62 166.58 -9.62 166.58 5.42 173.63 C6.41 173.14 6.41 173.14 7.42 172.63 C7.09 147.22 6.76 121.81 6.42 95.63 C-3.48 95.63 -13.38 95.63 -23.58 95.63 Z M260.42 95.63 C260.09 121.37 259.76 147.11 259.42 173.63 C263.69 172.21 267.26 170.84 271.22 168.85 C272.01 168.46 272.01 168.46 272.8 168.06 C273.9 167.51 274.99 166.96 276.07 166.41 C277.75 165.57 279.42 164.73 281.1 163.89 C286.08 161.72 286.08 161.72 290.42 158.63 C290.52 156.67 290.54 154.7 290.54 152.74 C290.54 152.12 290.54 151.51 290.54 150.88 C290.54 148.84 290.53 146.8 290.52 144.76 C290.52 143.34 290.52 141.93 290.52 140.52 C290.51 136.8 290.5 133.08 290.49 129.36 C290.48 124.9 290.47 120.44 290.47 115.98 C290.46 109.2 290.44 102.42 290.42 95.63 C280.52 95.63 270.62 95.63 260.42 95.63 Z " fill="#FFAA32" transform="translate(122.5771484375,34.365081787109375)"/><path d="M0 0 C15.43 12.81 25.81 28.94 29.5 48.8 C29.63 49.5 29.76 50.19 29.9 50.9 C30.2 52.88 30.38 54.81 30.5 56.8 C30.58 58.09 30.58 58.09 30.66 59.4 C31.31 80.43 23.85 101.05 9.69 116.62 C-5.06 132.24 -24.87 140.78 -46.23 141.78 C-67.89 142.33 -87.49 134.28 -103.5 119.8 C-119.16 104.83 -127.11 84.55 -127.81 63.05 C-127.55 50.75 -125.07 38.81 -119.5 27.8 C-119 26.82 -118.51 25.84 -118 24.82 C-108.18 6.65 -91.64 -7.04 -71.87 -13.05 C-47.31 -20.09 -20.22 -16.16 0 0 Z " fill="#FFC13D" transform="translate(304.49658203125,138.19580078125)"/><path d="M0 0 C7.43 0.99 7.43 0.99 15 2 C18.85 2.17 22.6 2.28 26.44 2.25 C27.78 2.26 27.78 2.26 29.15 2.27 C37.67 2.25 45.37 1.08 54 0 C58.29 21.12 62.58 42.24 67 64 C79.87 64.5 79.87 64.5 93 65 C102.17 69.58 102.17 69.58 105 74 C107.43 81.28 106 89.33 106 97 C53.86 97 1.72 97 -52 97 C-52 77 -52 77 -48 70 C-36.9 61.39 -29.95 64.65 -13 64 C-8.71 42.88 -4.42 21.76 0 0 Z " fill="#FF9727" transform="translate(229,332)"/><path d="M0 0 C0.66 0 1.32 0 2 0 C2.49 1.08 2.49 1.08 2.99 2.19 C4.21 4.86 5.43 7.53 6.64 10.2 C7.17 11.36 7.7 12.51 8.22 13.67 C8.98 15.33 9.74 16.99 10.5 18.65 C11.18 20.15 11.18 20.15 11.88 21.68 C12.8 23.91 12.8 23.91 14 25 C15.92 25.37 17.85 25.68 19.79 25.97 C20.36 26.06 20.94 26.15 21.53 26.24 C23.37 26.52 25.22 26.79 27.06 27.06 C28.31 27.25 29.56 27.44 30.81 27.63 C33.87 28.09 36.94 28.55 40 29 C38.59 32.27 36.95 34.18 34.27 36.5 C33.19 37.49 33.19 37.49 32.09 38.5 C30.58 39.87 29.05 41.22 27.5 42.54 C23.29 46.43 23.29 46.43 21.7 51.76 C21.94 54.58 22.39 57.24 23 60 C23.18 61.16 23.36 62.32 23.54 63.49 C23.89 65.38 24.24 67.28 24.6 69.18 C25.02 72.15 25.07 75 25 78 C22.48 76.75 19.96 75.5 17.44 74.25 C16.73 73.9 16.03 73.55 15.3 73.2 C14.6 72.85 13.9 72.5 13.18 72.14 C12.48 71.79 11.78 71.45 11.05 71.09 C9.06 70.03 7.23 68.84 5.35 67.61 C2.75 66.13 2.25 65.96 -0.86 66.43 C-2.38 67.1 -2.38 67.1 -4 68 C-4.71 68.37 -5.41 68.74 -6.14 69.12 C-8.55 70.42 -10.93 71.76 -13.31 73.12 C-14.93 74.05 -16.55 74.97 -18.18 75.88 C-19.24 76.49 -19.24 76.49 -20.33 77.11 C-22 78 -22 78 -23 78 C-22.52 70.81 -21.72 63.78 -20.4 56.69 C-19.99 53.96 -19.71 51.75 -20 49 C-21.64 46.71 -21.64 46.71 -23.94 44.64 C-24.75 43.86 -25.56 43.07 -26.4 42.26 C-27.26 41.44 -28.13 40.63 -29 39.81 C-30.69 38.2 -32.38 36.58 -34.06 34.96 C-34.82 34.25 -35.57 33.53 -36.35 32.8 C-38 31 -38 31 -38 29 C-36.88 28.94 -36.88 28.94 -35.74 28.89 C-22.12 28.5 -22.12 28.5 -10.05 23.39 C-7.24 19.62 -5.8 15.42 -4.56 10.93 C-3.8 8.32 -2.68 5.94 -1.5 3.5 C-1 2.34 -0.49 1.17 0 0 Z " fill="#FFAB33" transform="translate(255,162)"/></svg>