<svg xmlns="http://www.w3.org/2000/svg" viewBox="0 0 512 512"><path d="M0 0 C3 0.25 3 0.25 5 2.25 C5.17 4.54 5.23 6.72 5.2 9.01 C5.19 9.67 5.19 10.33 5.19 11.02 C5.18 13.14 5.15 15.26 5.12 17.38 C5.11 18.81 5.11 20.25 5.1 21.68 C5.08 25.21 5.04 28.73 5 32.25 C5.9 32.24 6.8 32.22 7.73 32.21 C14.74 32.14 21.56 32.26 28.5 33.38 C29.75 33.57 29.75 33.57 31.03 33.77 C64 39.32 95.02 53.26 121 74.25 C121.62 73.89 122.23 73.53 122.87 73.16 C128.67 69.98 133.36 67.97 140 69.25 C146.83 71.46 150.83 75.43 154.31 81.56 C155.79 87.34 155.78 92.27 153 97.62 C152.63 98.25 152.26 98.88 151.88 99.52 C150.77 101.37 150.77 101.37 151 104.25 C151.84 105.74 151.84 105.74 153.05 107.19 C153.5 107.77 153.94 108.34 154.4 108.93 C155.13 109.86 155.13 109.86 155.88 110.81 C162.18 119.15 167.22 127.97 172 137.25 C172.33 137.88 172.66 138.52 173 139.17 C185.72 163.93 192.26 191.51 192 219.25 C192.9 219.24 193.8 219.23 194.72 219.22 C198.05 219.18 201.38 219.16 204.71 219.14 C206.15 219.13 207.59 219.12 209.03 219.1 C211.1 219.07 213.17 219.06 215.24 219.05 C215.89 219.04 216.53 219.03 217.2 219.02 C218.8 219.02 220.4 219.13 222 219.25 C224 221.25 224 221.25 224.25 224.25 C224 227.25 224 227.25 222 229.25 C219.71 229.42 217.53 229.48 215.24 229.45 C214.58 229.44 213.92 229.44 213.23 229.44 C211.11 229.43 208.99 229.4 206.88 229.38 C205.44 229.36 204 229.36 202.57 229.35 C199.04 229.33 195.52 229.29 192 229.25 C192.03 230.56 192.03 230.56 192.06 231.91 C192.17 239.7 191.74 247.11 190.38 254.81 C190.2 255.84 190.02 256.86 189.83 257.91 C183.51 292.58 168.25 324.73 145 351.25 C144.56 351.75 144.12 352.25 143.67 352.77 C138.14 359.03 132.52 364.99 126 370.25 C125.51 370.65 125.02 371.05 124.52 371.46 C97.61 393.49 67.2 407.76 33 414.25 C32.31 414.38 31.62 414.51 30.91 414.65 C24.44 415.83 18.16 416.35 11.59 416.29 C10.96 416.29 10.32 416.29 9.66 416.28 C8.11 416.28 6.55 416.26 5 416.25 C5.01 417.15 5.02 418.05 5.03 418.97 C5.07 422.3 5.09 425.63 5.11 428.96 C5.12 430.4 5.13 431.84 5.15 433.28 C5.18 435.35 5.19 437.42 5.2 439.49 C5.21 440.14 5.22 440.78 5.23 441.45 C5.23 443.05 5.12 444.65 5 446.25 C3 448.25 3 448.25 0 448.5 C-3 448.25 -3 448.25 -5 446.25 C-5.17 443.96 -5.23 441.78 -5.2 439.49 C-5.19 438.83 -5.19 438.17 -5.19 437.48 C-5.18 435.36 -5.15 433.24 -5.12 431.12 C-5.11 429.69 -5.11 428.25 -5.1 426.82 C-5.08 423.29 -5.04 419.77 -5 416.25 C-6.35 416.27 -6.35 416.27 -7.73 416.29 C-14.74 416.36 -21.56 416.24 -28.5 415.12 C-29.33 414.99 -30.17 414.86 -31.03 414.73 C-61.37 409.62 -89.42 397.38 -114.31 379.45 C-116.84 377.66 -119.41 375.95 -122 374.25 C-122.93 374.89 -123.86 375.53 -124.81 376.19 C-129.64 379.52 -134.27 379.91 -140 379.25 C-146.83 377.12 -150.85 373.03 -154.31 366.94 C-155.79 361.16 -155.78 356.23 -153 350.88 C-152.63 350.25 -152.26 349.62 -151.88 348.98 C-150.77 347.13 -150.77 347.13 -151 344.25 C-151.96 342.53 -151.96 342.53 -153.31 340.8 C-153.8 340.13 -154.3 339.45 -154.81 338.76 C-155.62 337.67 -155.62 337.67 -156.44 336.56 C-162.31 328.45 -167.4 320.14 -172 311.25 C-172.31 310.65 -172.63 310.05 -172.95 309.43 C-185.7 284.64 -192.26 257.03 -192 229.25 C-192.9 229.26 -193.8 229.27 -194.72 229.28 C-198.05 229.32 -201.38 229.34 -204.71 229.36 C-206.15 229.37 -207.59 229.38 -209.03 229.4 C-211.1 229.43 -213.17 229.44 -215.24 229.45 C-215.89 229.46 -216.53 229.47 -217.2 229.48 C-218.8 229.48 -220.4 229.37 -222 229.25 C-224 227.25 -224 227.25 -224.25 224.25 C-224 221.25 -224 221.25 -222 219.25 C-219.71 219.08 -217.53 219.02 -215.24 219.05 C-214.58 219.06 -213.92 219.06 -213.23 219.06 C-211.11 219.07 -208.99 219.1 -206.88 219.12 C-205.44 219.14 -204 219.14 -202.57 219.15 C-199.04 219.17 -195.52 219.21 -192 219.25 C-192.02 218.37 -192.04 217.5 -192.06 216.59 C-192.17 208.8 -191.74 201.39 -190.38 193.69 C-190.2 192.66 -190.02 191.64 -189.83 190.59 C-183.49 155.82 -168.17 123.92 -145 97.25 C-144.59 96.78 -144.19 96.31 -143.77 95.83 C-138.54 89.85 -133.12 84.33 -127 79.25 C-126.13 78.49 -125.26 77.73 -124.36 76.95 C-98.31 54.4 -66.68 40.64 -33 34.25 C-32.31 34.12 -31.62 33.99 -30.91 33.85 C-24.44 32.67 -18.16 32.15 -11.59 32.21 C-10.96 32.21 -10.32 32.21 -9.66 32.22 C-8.11 32.22 -6.55 32.24 -5 32.25 C-5.01 31.35 -5.02 30.45 -5.03 29.53 C-5.07 26.2 -5.09 22.87 -5.11 19.54 C-5.12 18.1 -5.13 16.66 -5.15 15.22 C-5.18 13.15 -5.19 11.08 -5.2 9.01 C-5.21 8.36 -5.22 7.72 -5.23 7.05 C-5.23 5.45 -5.12 3.85 -5 2.25 C-3 0.25 -3 0.25 0 0 Z " fill="#A1E060" transform="translate(256,31.75)"/><path d="M0 0 C16.17 0 32.34 0 49 0 C49.37 3.9 49.74 7.8 50.12 11.81 C54.04 47.89 72.57 83.12 101 106 C101.47 106.38 101.94 106.76 102.42 107.15 C117.15 118.87 134.8 128.15 153 133 C154.52 133.44 154.52 133.44 156.06 133.88 C166.39 136.6 176.09 136.96 187 138 C187 154.17 187 170.34 187 187 C170.53 187 170.53 187 163.5 185.88 C162.67 185.74 161.83 185.61 160.97 185.48 C130.63 180.37 102.58 168.13 77.69 150.2 C75.16 148.41 72.59 146.7 70 145 C69.07 145.64 68.14 146.28 67.19 146.94 C62.36 150.27 57.73 150.66 52 150 C45.17 147.87 41.15 143.78 37.69 137.69 C36.21 131.91 36.22 126.98 39 121.62 C39.56 120.69 39.56 120.69 40.12 119.73 C41.23 117.88 41.23 117.88 41 115 C40.04 113.28 40.04 113.28 38.69 111.55 C38.2 110.88 37.7 110.2 37.19 109.51 C36.65 108.78 36.12 108.06 35.56 107.31 C29.69 99.2 24.6 90.89 20 82 C19.69 81.4 19.37 80.8 19.05 80.18 C6.24 55.26 0 27.87 0 0 Z " fill="#238424" transform="translate(64,261)"/><path d="M0 0 C16.47 0 16.47 0 23.5 1.12 C24.75 1.32 24.75 1.32 26.03 1.52 C59 7.07 90.02 21.01 116 42 C116.93 41.46 116.93 41.46 117.87 40.91 C123.67 37.73 128.36 35.72 135 37 C141.83 39.21 145.83 43.18 149.31 49.31 C150.79 55.09 150.78 60.02 148 65.38 C147.44 66.31 147.44 66.31 146.88 67.27 C145.77 69.12 145.77 69.12 146 72 C146.84 73.49 146.84 73.49 148.05 74.94 C148.5 75.52 148.94 76.09 149.4 76.68 C150.13 77.61 150.13 77.61 150.88 78.56 C157.18 86.9 162.22 95.72 167 105 C167.49 105.95 167.49 105.95 168 106.92 C180.79 131.8 187 159.17 187 187 C170.83 187 154.66 187 138 187 C137.63 183.12 137.26 179.25 136.88 175.25 C132.97 139.84 115.86 106.4 88.62 83.1 C74.09 71.46 57.86 61.6 40 56 C38.98 55.68 38.98 55.68 37.94 55.35 C25.16 51.41 13.57 50.29 0 49 C0 32.83 0 16.66 0 0 Z " fill="#238424" transform="translate(261,64)"/><path d="M0 0 C16.17 0 32.34 0 49 0 C49 9.01 48.92 16.86 47.38 25.56 C47.2 26.59 47.02 27.61 46.83 28.66 C40.51 63.33 25.25 95.48 2 122 C1.56 122.5 1.12 123 0.67 123.52 C-4.86 129.78 -10.48 135.74 -17 141 C-17.73 141.6 -17.73 141.6 -18.48 142.21 C-45.39 164.24 -75.8 178.51 -110 185 C-110.69 185.13 -111.38 185.26 -112.09 185.4 C-120.8 186.99 -129.03 187 -138 187 C-138 170.83 -138 154.66 -138 138 C-134.1 137.63 -130.2 137.26 -126.19 136.88 C-114.56 135.61 -103.91 133.26 -93 129 C-92.3 128.73 -91.59 128.45 -90.87 128.17 C-75.84 122.2 -62.41 114.37 -50 104 C-49.49 103.57 -48.97 103.15 -48.45 102.71 C-17.12 76.3 -4.17 39.58 0 0 Z " fill="#238424" transform="translate(399,261)"/><path d="M0 0 C0 16.17 0 32.34 0 49 C-4.95 49.33 -9.9 49.66 -15 50 C-18.19 50.48 -21.24 50.99 -24.38 51.69 C-25.17 51.86 -25.96 52.03 -26.78 52.21 C-50.14 57.58 -70.78 68.54 -89 84 C-89.45 84.38 -89.89 84.76 -90.36 85.15 C-98.15 91.81 -105.43 99.03 -110.73 107.88 C-114.82 114.69 -114.82 114.69 -118.67 115.7 C-120.58 115.82 -122.49 115.87 -124.41 115.86 C-128.27 116.07 -130.03 117.64 -133 120 C-133.66 120 -134.32 120 -135 120 C-135.31 120.78 -135.62 121.57 -135.94 122.38 C-137 125 -137 125 -138 127 C-138.51 133.61 -138.86 139.43 -135 145 C-134.46 145.46 -133.91 145.92 -133.36 146.39 C-132 148 -132 148 -132.04 149.88 C-132.33 150.99 -132.33 150.99 -132.62 152.12 C-133.74 156.86 -134.71 161.59 -135.56 166.38 C-135.75 167.38 -135.75 167.38 -135.95 168.41 C-137.07 174.65 -137.47 180.58 -138 187 C-154.17 187 -170.34 187 -187 187 C-187 177.99 -186.92 170.14 -185.38 161.44 C-185.2 160.41 -185.02 159.39 -184.83 158.34 C-178.49 123.57 -163.17 91.67 -140 65 C-139.59 64.53 -139.19 64.06 -138.77 63.58 C-133.54 57.6 -128.12 52.08 -122 47 C-121.13 46.24 -120.26 45.48 -119.36 44.7 C-93.31 22.15 -61.68 8.39 -28 2 C-27.31 1.87 -26.62 1.74 -25.91 1.6 C-17.2 0.01 -8.97 0 0 0 Z " fill="#238424" transform="translate(251,64)"/><path d="M0 0 C0 14.19 0 28.38 0 43 C-5.61 43.99 -11.22 44.98 -17 46 C-30.84 49.52 -44.76 55.74 -55 66 C-56.25 68.12 -56.25 68.12 -57 70 C-56.34 70.62 -55.68 71.24 -55 71.88 C-53 74 -53 74 -53 76 C-52.57 75.64 -52.14 75.29 -51.69 74.92 C-36.22 62.24 -20.49 53 0 53 C0 67.52 0 82.04 0 97 C-4.45 97.99 -4.45 97.99 -9 99 C-12.24 100.57 -12.24 100.57 -15 102.5 C-15.93 103.11 -16.86 103.72 -17.81 104.34 C-20.09 105.82 -20.09 105.82 -21 108 C-20.42 108.29 -19.84 108.58 -19.25 108.88 C-17 110 -17 110 -15.14 111.22 C-12.98 112.28 -12.98 112.28 -10.78 111.1 C-10.03 110.61 -9.28 110.13 -8.5 109.62 C-5.11 107.45 -4.22 107 0 107 C0 113.93 0 120.86 0 128 C-42.24 128 -84.48 128 -128 128 C-128 120.67 -127.83 114.23 -126.62 107.12 C-126.5 106.31 -126.37 105.5 -126.24 104.66 C-124.85 96.08 -124.85 96.08 -123 93 C-120.83 92.21 -120.83 92.21 -118.25 91.94 C-112.75 91.07 -109.52 89.88 -105.75 85.57 C-102.26 80.51 -102.08 74.96 -103 69 C-103.9 66.96 -104.88 65.31 -106.22 63.54 C-107 62 -107 62 -106.84 60.13 C-102.38 48.86 -91.18 38.46 -82 31 C-81.55 30.63 -81.1 30.26 -80.64 29.87 C-57.4 10.72 -30.12 0 0 0 Z " fill="#5DBD5C" transform="translate(251,123)"/><path d="M0 0 C14.19 0 28.38 0 43 0 C43.66 3.96 44.32 7.92 45 12 C49.71 34.8 61.66 55.3 81.02 68.68 C95.68 78.27 110.64 83.07 128 85 C128 99.19 128 113.38 128 128 C111.57 128 111.57 128 103.31 126 C102.38 125.78 101.45 125.56 100.49 125.33 C80.1 120.23 62.14 110.26 46 97 C45.23 96.37 44.45 95.74 43.66 95.09 C38.95 91.11 34.89 86.77 31 82 C30.63 81.55 30.25 81.1 29.87 80.63 C16.34 64.21 6.99 45.51 2.06 24.81 C1.85 23.95 1.64 23.08 1.42 22.19 C-0.29 14.42 0 8.39 0 0 Z " fill="#238424" transform="translate(123,261)"/><path d="M0 0 C31.8 0 58.72 11.78 83 32 C83.64 32.51 84.27 33.03 84.93 33.55 C89.48 37.29 93.27 41.45 97 46 C97.55 46.66 97.55 46.66 98.12 47.34 C111.73 63.68 120.93 82.44 125.88 103.06 C126.09 103.94 126.31 104.81 126.53 105.71 C128.27 113.54 128 119.53 128 128 C113.81 128 99.62 128 85 128 C84.34 123.71 83.68 119.42 83 115 C80 99.68 73.29 85.74 63 74 C62.59 73.53 62.18 73.06 61.75 72.57 C45.61 54.45 23.73 45.64 0 43 C0 28.81 0 14.62 0 0 Z " fill="#238424" transform="translate(261,123)"/><path d="M0 0 C14.19 0 28.38 0 43 0 C43 31.31 31.07 59.1 11 83 C10.41 83.71 9.82 84.42 9.22 85.16 C-2.38 98.87 -17.84 109.38 -34 117 C-34.58 117.28 -35.16 117.55 -35.76 117.84 C-43.6 121.48 -51.66 123.87 -60.06 125.88 C-60.94 126.09 -61.81 126.31 -62.71 126.53 C-70.53 128.28 -76.53 128 -85 128 C-85 113.81 -85 99.62 -85 85 C-76.58 83.51 -76.58 83.51 -68 82 C-62.9 80.8 -58.66 79.39 -54.05 76.96 C-53.34 76.59 -52.63 76.22 -51.9 75.84 C-50.49 75.08 -49.09 74.31 -47.71 73.52 C-42.73 70.82 -42.73 70.82 -38.92 71.74 C-37.96 72.16 -36.99 72.57 -36 73 C-30.21 73.67 -24.02 74.27 -18.94 71 C-14.87 67.4 -12.4 63.06 -11.69 57.66 C-11.57 53.22 -12.29 50.11 -14 46 C-13.63 42.06 -12.13 39.14 -10.27 35.73 C-3.99 24.23 -1.62 12.97 0 0 Z " fill="#238424" transform="translate(346,261)"/><path d="M0 0 C5.04 2.48 9.11 6.62 11.25 11.81 C12.44 19.13 11.24 24.58 7.08 30.71 C3.64 34.66 0.14 36.34 -4.98 37.18 C-10.65 37.51 -15.13 36.09 -19.75 32.81 C-24.43 28.48 -26.79 23.9 -27.12 17.5 C-26.96 12.53 -25.92 8.7 -22.75 4.81 C-15.74 -1.09 -8.71 -3.24 0 0 Z " fill="#A2E160" transform="translate(127.75,374.1875)"/><path d="M0 0 C4.3 3.05 7.47 7.13 8.79 12.27 C9.48 17.76 9.08 22.55 6.3 27.41 C2.59 31.98 -2.26 34.66 -7.99 35.85 C-14.28 36.24 -18.41 34.71 -23.4 30.92 C-27.89 26.82 -29.29 22.06 -29.65 16.14 C-29.56 10.19 -26.99 5.76 -23.21 1.27 C-16.26 -4.4 -7.61 -4.29 0 0 Z " fill="#A2E160" transform="translate(402.2109375,103.73046875)"/></svg>