<svg xmlns="http://www.w3.org/2000/svg" width="46" height="46" viewBox="0 0 512 512"><path d="M0 0 C1.19 -0.01 2.38 -0.01 3.57 -0.02 C6.79 -0.04 10.01 -0.03 13.23 -0.02 C16.61 -0.01 19.99 -0.02 23.37 -0.03 C29.04 -0.03 34.71 -0.02 40.38 -0 C46.93 0.02 53.48 0.01 60.02 -0.01 C65.65 -0.03 71.29 -0.03 76.92 -0.02 C80.28 -0.02 83.64 -0.01 87 -0.03 C90.16 -0.04 93.31 -0.03 96.47 -0.01 C98.18 -0 99.88 -0.01 101.58 -0.02 C107.7 0.04 112.4 0.38 117.12 4.52 C121.29 9.7 121.68 14.6 121.6 21.05 C121.6 21.99 121.61 22.94 121.61 23.9 C121.62 27.05 121.59 30.19 121.57 33.33 C121.57 35.59 121.57 37.85 121.57 40.11 C121.58 44.96 121.56 49.81 121.54 54.67 C121.51 61.69 121.5 68.7 121.49 75.72 C121.48 87.11 121.46 98.5 121.42 109.89 C121.38 120.94 121.35 132 121.34 143.06 C121.34 143.74 121.33 144.43 121.33 145.13 C121.33 148.55 121.32 151.97 121.32 155.4 C121.28 183.77 121.21 212.14 121.12 240.52 C130.36 240.52 139.6 240.52 149.12 240.52 C149.11 238.27 149.1 236.01 149.09 233.69 C149.01 212.49 148.95 191.29 148.91 170.08 C148.89 159.18 148.86 148.28 148.82 137.38 C148.78 127.88 148.75 118.37 148.74 108.87 C148.74 103.84 148.72 98.81 148.69 93.78 C148.67 89.04 148.66 84.3 148.66 79.57 C148.66 77.83 148.66 76.09 148.64 74.36 C148.62 71.98 148.63 69.61 148.64 67.23 C148.62 66.55 148.61 65.86 148.6 65.16 C148.66 60.11 150.1 56.57 153.12 52.52 C157.48 48.4 162.57 47.94 168.33 48 C169.12 47.99 169.91 47.99 170.72 47.98 C173.31 47.96 175.9 47.97 178.49 47.99 C180.3 47.98 182.12 47.98 183.93 47.97 C187.72 47.97 191.51 47.98 195.29 48 C200.14 48.02 204.99 48.01 209.83 47.98 C213.57 47.97 217.31 47.97 221.05 47.98 C222.83 47.98 224.62 47.98 226.4 47.97 C228.91 47.96 231.41 47.98 233.91 48 C234.64 47.99 235.37 47.98 236.12 47.98 C241.11 48.06 245.4 49.01 249.12 52.52 C252.69 57.31 253.7 61.33 253.6 67.23 C253.6 67.98 253.61 68.72 253.61 69.49 C253.62 71.97 253.59 74.45 253.57 76.93 C253.57 78.71 253.57 80.5 253.57 82.28 C253.57 87.11 253.55 91.94 253.52 96.78 C253.5 101.83 253.5 106.88 253.49 111.94 C253.48 121.5 253.45 131.07 253.41 140.64 C253.36 151.53 253.34 162.42 253.32 173.31 C253.28 195.71 253.21 218.12 253.12 240.52 C253.94 240.47 254.76 240.42 255.6 240.38 C256.68 240.34 257.76 240.3 258.87 240.27 C259.93 240.22 261 240.17 262.1 240.13 C265.79 240.6 266.88 241.62 269.12 244.52 C269.63 246.79 269.63 246.79 269.63 249.31 C269.65 250.26 269.66 251.21 269.67 252.19 C269.66 253.71 269.66 253.71 269.65 255.27 C269.65 256.32 269.66 257.37 269.66 258.45 C269.66 260.67 269.66 262.89 269.64 265.11 C269.62 268.51 269.64 271.9 269.66 275.3 C269.66 277.46 269.66 279.61 269.65 281.77 C269.66 282.78 269.66 283.8 269.67 284.85 C269.65 286.27 269.65 286.27 269.63 287.72 C269.63 288.55 269.63 289.38 269.63 290.24 C268.91 293.45 267.7 294.5 265.12 296.52 C262.56 296.91 260.44 297.06 257.89 297.02 C256.79 297.03 256.79 297.03 255.67 297.04 C253.2 297.05 250.73 297.04 248.26 297.03 C246.48 297.03 244.7 297.04 242.92 297.04 C238.01 297.06 233.1 297.05 228.19 297.04 C222.9 297.03 217.61 297.05 212.32 297.06 C202.55 297.07 192.79 297.07 183.02 297.06 C174 297.05 164.97 297.05 155.95 297.05 C155.35 297.05 154.75 297.05 154.14 297.05 C151.71 297.06 149.28 297.06 146.86 297.06 C124.07 297.07 101.29 297.06 78.51 297.04 C58.27 297.02 38.02 297.02 17.77 297.04 C-4.97 297.06 -27.71 297.07 -50.45 297.06 C-52.87 297.06 -55.29 297.05 -57.72 297.05 C-58.31 297.05 -58.91 297.05 -59.52 297.05 C-68.54 297.05 -77.56 297.05 -86.58 297.06 C-96.83 297.07 -107.08 297.07 -117.33 297.05 C-122.57 297.04 -127.8 297.04 -133.03 297.05 C-137.82 297.06 -142.61 297.05 -147.39 297.03 C-149.13 297.03 -150.87 297.03 -152.6 297.04 C-154.95 297.05 -157.3 297.04 -159.66 297.02 C-160.34 297.03 -161.02 297.04 -161.72 297.05 C-165.04 297 -166.65 296.7 -169.3 294.63 C-171.19 292.11 -171.39 290.84 -171.4 287.72 C-171.41 286.77 -171.43 285.83 -171.44 284.85 C-171.43 283.83 -171.42 282.82 -171.41 281.77 C-171.42 280.72 -171.42 279.67 -171.43 278.58 C-171.43 276.37 -171.42 274.15 -171.4 271.93 C-171.38 268.53 -171.4 265.13 -171.43 261.74 C-171.43 259.58 -171.42 257.42 -171.41 255.27 C-171.42 254.25 -171.43 253.23 -171.44 252.19 C-171.43 251.24 -171.41 250.29 -171.4 249.31 C-171.4 248.48 -171.39 247.65 -171.39 246.79 C-170.68 243.62 -169.42 242.53 -166.88 240.52 C-163.87 240.13 -163.87 240.13 -160.63 240.27 C-159.56 240.3 -158.48 240.34 -157.37 240.38 C-156.55 240.42 -155.73 240.47 -154.88 240.52 C-154.89 239.76 -154.89 238.99 -154.89 238.21 C-154.98 219.67 -155.05 201.14 -155.09 182.6 C-155.11 173.63 -155.14 164.67 -155.18 155.71 C-155.22 147.89 -155.25 140.08 -155.26 132.26 C-155.26 128.13 -155.28 123.99 -155.31 119.85 C-155.33 115.96 -155.34 112.06 -155.34 108.16 C-155.34 106.74 -155.34 105.31 -155.36 103.88 C-155.5 90.43 -155.5 90.43 -152.19 85.83 C-148.01 81.63 -143.76 80.07 -137.89 79.98 C-137.16 79.98 -136.42 79.99 -135.67 80 C-134.88 79.99 -134.09 79.99 -133.28 79.98 C-130.69 79.96 -128.1 79.97 -125.51 79.99 C-123.7 79.98 -121.88 79.98 -120.07 79.97 C-116.28 79.97 -112.49 79.98 -108.71 80 C-103.86 80.02 -99.01 80.01 -94.17 79.98 C-90.43 79.97 -86.69 79.97 -82.95 79.98 C-81.17 79.98 -79.38 79.98 -77.6 79.97 C-75.09 79.96 -72.59 79.98 -70.09 80 C-69 79.99 -69 79.99 -67.88 79.98 C-62.01 80.07 -57.76 81.63 -53.58 85.83 C-49.4 91.64 -50.36 99.17 -50.43 105.99 C-50.43 107.46 -50.43 108.93 -50.43 110.4 C-50.43 114.37 -50.45 118.34 -50.48 122.31 C-50.5 126.47 -50.5 130.63 -50.51 134.79 C-50.52 142.65 -50.55 150.52 -50.59 158.38 C-50.64 167.34 -50.66 176.3 -50.68 185.26 C-50.72 203.68 -50.8 222.1 -50.88 240.52 C-41.64 240.52 -32.4 240.52 -22.88 240.52 C-22.89 237.66 -22.9 234.81 -22.91 231.87 C-22.99 205.7 -23.05 179.53 -23.09 153.36 C-23.09 149.92 -23.1 146.49 -23.1 143.06 C-23.1 142.38 -23.1 141.7 -23.11 140.99 C-23.12 129.94 -23.15 118.88 -23.19 107.82 C-23.23 96.48 -23.25 85.13 -23.26 73.78 C-23.26 66.78 -23.28 59.78 -23.31 52.78 C-23.34 47.41 -23.34 42.04 -23.34 36.68 C-23.34 34.47 -23.34 32.27 -23.36 30.07 C-23.38 27.06 -23.37 24.06 -23.36 21.05 C-23.38 20.18 -23.39 19.31 -23.4 18.41 C-23.35 12.91 -22.38 8.87 -18.88 4.52 C-13.3 -0.38 -7.12 -0.05 0 0 Z " fill="#FEBC00" transform="translate(206.8828125,179.482421875)"/><path d="M0 0 C1.18 -0.01 1.18 -0.01 2.39 -0.02 C4.98 -0.04 7.57 -0.03 10.16 -0.01 C11.98 -0.02 13.79 -0.02 15.6 -0.03 C19.39 -0.03 23.18 -0.02 26.97 -0 C31.81 0.02 36.66 0.01 41.5 -0.02 C45.24 -0.03 48.98 -0.03 52.72 -0.02 C54.5 -0.02 56.29 -0.02 58.08 -0.03 C60.58 -0.04 63.08 -0.02 65.58 0 C66.31 -0.01 67.04 -0.02 67.79 -0.02 C72.78 0.06 77.07 1.01 80.79 4.52 C84.36 9.31 85.37 13.33 85.27 19.23 C85.27 19.98 85.28 20.72 85.28 21.49 C85.29 23.97 85.27 26.45 85.24 28.93 C85.24 30.71 85.24 32.5 85.24 34.28 C85.25 39.11 85.22 43.94 85.19 48.78 C85.17 53.83 85.17 58.88 85.16 63.94 C85.15 73.5 85.12 83.07 85.08 92.64 C85.02 105.57 85 118.5 84.98 131.43 C84.94 151.79 84.86 172.15 84.79 192.52 C50.47 192.52 16.15 192.52 -19.21 192.52 C-19.37 147.41 -19.37 147.41 -19.41 128.52 C-19.43 115.47 -19.46 102.42 -19.51 89.38 C-19.55 79.88 -19.58 70.37 -19.59 60.87 C-19.59 55.84 -19.6 50.81 -19.63 45.78 C-19.66 41.04 -19.67 36.3 -19.66 31.57 C-19.66 29.83 -19.67 28.09 -19.69 26.36 C-19.71 23.98 -19.7 21.61 -19.69 19.23 C-19.7 18.55 -19.72 17.86 -19.73 17.16 C-19.66 12.11 -18.23 8.57 -15.21 4.52 C-10.84 0.4 -5.76 -0.06 0 0 Z " fill="#FFDE4F" transform="translate(375.2109375,227.482421875)"/><path d="M0 0 C1.18 -0.01 1.18 -0.01 2.39 -0.02 C4.98 -0.04 7.57 -0.03 10.16 -0.01 C11.98 -0.02 13.79 -0.02 15.6 -0.03 C19.39 -0.03 23.18 -0.02 26.97 -0 C31.81 0.02 36.66 0.01 41.5 -0.02 C45.24 -0.03 48.98 -0.03 52.72 -0.02 C54.5 -0.02 56.29 -0.02 58.08 -0.03 C60.58 -0.04 63.08 -0.02 65.58 0 C66.31 -0.01 67.04 -0.02 67.79 -0.02 C73.66 0.07 77.91 1.63 82.1 5.83 C86.28 11.64 85.32 19.17 85.24 25.99 C85.24 27.46 85.24 28.93 85.24 30.4 C85.25 34.37 85.22 38.34 85.19 42.31 C85.17 46.47 85.17 50.63 85.16 54.79 C85.15 62.65 85.12 70.52 85.08 78.38 C85.02 89.02 85 99.65 84.98 110.28 C84.94 127.03 84.86 143.77 84.79 160.52 C50.47 160.52 16.15 160.52 -19.21 160.52 C-19.37 123.43 -19.37 123.43 -19.41 107.89 C-19.43 97.16 -19.46 86.44 -19.51 75.71 C-19.55 67.89 -19.58 60.08 -19.59 52.26 C-19.59 48.13 -19.6 43.99 -19.63 39.85 C-19.66 35.96 -19.67 32.06 -19.66 28.16 C-19.66 26.74 -19.67 25.31 -19.69 23.88 C-19.83 10.43 -19.83 10.43 -16.52 5.83 C-11.64 0.93 -6.72 -0.07 0 0 Z " fill="#FFDE4F" transform="translate(71.2109375,259.482421875)"/><path d="M0 0 C0.62 -0.01 1.24 -0.02 1.88 -0.03 C9.1 1.78 12.47 7.54 16.27 13.42 C16.84 14.28 17.41 15.14 18 16.03 C19.8 18.76 21.59 21.51 23.38 24.25 C24.6 26.11 25.82 27.97 27.05 29.83 C30.05 34.38 33.03 38.94 36 43.5 C40.24 42.93 43.78 41.92 47.7 40.21 C48.77 39.77 49.83 39.32 50.93 38.86 C52.59 38.15 54.24 37.44 55.89 36.72 C62.76 33.73 69.39 31.02 77 32.5 C80.16 34.31 82.36 36.23 84 39.5 C84.71 46.93 83.29 53.62 81.38 60.76 C80.98 62.3 80.98 62.3 80.57 63.88 C79.72 67.13 78.86 70.38 78 73.62 C77.42 75.84 76.84 78.06 76.27 80.28 C74.86 85.69 73.43 91.1 72 96.5 C73.12 96.64 74.24 96.79 75.39 96.93 C78.28 97.3 79.99 97.62 81.94 99.94 C84.49 103.46 84.71 106.83 84.5 111.09 C83.73 114.8 81.9 117.12 79 119.5 C76.25 120.88 74.03 120.64 70.95 120.65 C70.33 120.66 69.7 120.66 69.06 120.67 C66.95 120.68 64.84 120.69 62.73 120.69 C61.22 120.7 59.72 120.71 58.21 120.72 C53.25 120.74 48.29 120.76 43.33 120.77 C41.62 120.78 39.91 120.78 38.21 120.79 C31.11 120.81 24.01 120.83 16.91 120.84 C6.73 120.86 -3.45 120.89 -13.62 120.95 C-20.78 120.99 -27.93 121.01 -35.09 121.01 C-39.36 121.01 -43.63 121.03 -47.91 121.06 C-51.93 121.09 -55.95 121.1 -59.97 121.08 C-61.45 121.08 -62.92 121.09 -64.4 121.11 C-76.93 121.25 -76.93 121.25 -80.86 118.09 C-84.24 114 -84.41 111.24 -84.34 106.05 C-83.9 102.78 -82.87 101.04 -80.78 98.56 C-78.02 96.92 -75.17 96.91 -72 96.5 C-72.23 95.65 -72.23 95.65 -72.46 94.78 C-74.03 88.85 -75.58 82.91 -77.13 76.97 C-77.7 74.76 -78.29 72.55 -78.87 70.33 C-79.72 67.15 -80.55 63.95 -81.38 60.76 C-81.64 59.78 -81.9 58.8 -82.17 57.8 C-85.96 42.96 -85.96 42.96 -82.88 37.52 C-80.67 34.73 -78.74 32.77 -75.1 32.21 C-66.92 31.81 -60.42 34.76 -53.12 38 C-51.31 38.79 -49.49 39.58 -47.67 40.35 C-46.03 41.06 -44.4 41.77 -42.77 42.49 C-40.13 43.45 -38.74 43.89 -36 43.5 C-34.47 42.04 -34.47 42.04 -33.25 39.98 C-32.5 38.83 -32.5 38.83 -31.74 37.66 C-30.94 36.4 -30.94 36.4 -30.13 35.11 C-29.3 33.83 -29.3 33.83 -28.44 32.51 C-26.66 29.77 -24.89 27.01 -23.12 24.25 C-21.37 21.5 -19.6 18.76 -17.83 16.03 C-16.72 14.33 -15.62 12.62 -14.54 10.9 C-11.06 5.55 -7.09 -0.12 0 0 Z " fill="#FFBD00" transform="translate(256,35.5)"/></svg>