<svg viewBox="0 0 200 200" aria-hidden="true" style="display:block;width:100%;height:100%">
          <defs><radialGradient id="bowlBallGrad" cx="38%" cy="33%" r="65%"><stop offset="0%" stop-color="#ff6b5a"/><stop offset="35%" stop-color="#dc4444"/><stop offset="75%" stop-color="#8a1818"/><stop offset="100%" stop-color="#4a0808"/></radialGradient></defs>
          <circle cx="100" cy="100" r="95" fill="url(#bowlBallGrad)" stroke="#3a0606" stroke-width="1.5"/>
          <path d="M 18 100 Q 100 50 182 100" fill="none" stroke="rgba(0,0,0,.40)" stroke-width="2.5"/>
          <g stroke="#f8e8c8" stroke-width="2" stroke-linecap="round" fill="none">
            <path d="M 28 95 l 0 -8"/><path d="M 44 84 l 1 -8"/><path d="M 62 73 l 1 -8"/>
            <path d="M 82 65 l 1 -8"/><path d="M 100 62 l 0 -8"/><path d="M 118 65 l -1 -8"/>
            <path d="M 138 73 l -1 -8"/><path d="M 156 84 l -1 -8"/><path d="M 172 95 l 0 -8"/>
          </g>
          <g stroke="#f8e8c8" stroke-width="2" stroke-linecap="round" fill="none">
            <path d="M 28 105 l 0 8"/><path d="M 44 116 l 1 8"/><path d="M 62 127 l 1 8"/>
            <path d="M 82 135 l 1 8"/><path d="M 100 138 l 0 8"/><path d="M 118 135 l -1 8"/>
            <path d="M 138 127 l -1 8"/><path d="M 156 116 l -1 8"/><path d="M 172 105 l 0 8"/>
          </g>
        </svg>