<svg class="ms-hand-grip" viewBox="0 0 280 260" preserveAspectRatio="xMidYMid meet" aria-hidden="true">
        <path d="M 90 250 Q 60 200 70 150 Q 78 110 100 100 Q 118 92 116 78 Q 120 64 130 70"/>
        <path d="M 100 110 Q 110 116 118 112"/>
        <path d="M 110 90 Q 116 92 120 88"/>
        <path d="M 198 50 Q 218 42 212 25"/>
        <path d="M 202 80 Q 224 72 218 55"/>
        <path d="M 202 110 Q 224 102 218 85"/>
        <path d="M 200 140 Q 220 132 214 115"/>
        <path d="M 195 168 Q 211 160 207 145"/>
        <path d="M 195 50 Q 200 110 190 168"/>
        <path d="M 100 180 Q 130 200 160 200 Q 200 200 195 180"/>
        <path d="M 110 200 Q 124 232 130 260"/>
        <path d="M 190 200 Q 178 232 172 260"/>
        <path d="M 130 210 Q 160 215 190 210"/>
      </svg>